<svg width="432" height="347" viewBox="0 0 432 347" fill="none" xmlns="http://www.w3.org/2000/svg">
<path d="M0.0774753 212.346C1.35426 217.661 2.99402 222.876 4.97022 227.923L5.73969 229.862L5.82884 230.095C7.38688 233.882 9.12746 237.571 11.0442 241.16C15.9593 250.389 22.011 258.926 28.9702 266.515C29.5358 267.138 30.1175 267.751 30.6991 268.363L30.7065 268.366C35.3148 273.193 40.302 277.604 45.6034 281.531C52.5944 286.707 60.357 291.529 68.4178 294.516C70.6148 295.325 84.9756 298.009 90.1093 297.276C90.9467 297.163 91.5464 296.95 91.7926 296.622C91.9019 296.491 91.9422 296.342 91.9284 296.171C91.0465 287.133 88.0047 278.5 84.5543 270.196C81.6038 263.085 78.2786 256.054 73.7202 250.018L73.717 250.006C73.2936 249.437 72.8489 248.874 72.3957 248.325C72.1081 247.968 71.8066 247.622 71.5052 247.277C66.8576 241.918 61.2113 237.619 55.3846 233.774C47.4819 228.554 39.1388 224.071 30.4698 220.486C29.8818 220.247 29.2949 220.003 28.7091 219.774C20.2884 216.428 11.5845 213.937 2.71383 212.457C1.81276 212.304 0.906379 212.159 0 212.032C0.0297173 212.136 0.0477579 212.242 0.0774753 212.346" fill="url(#paint0_linear)"/>
<path d="M30.6996 268.363L30.7059 268.367C41.9773 269.498 53.186 271.149 64.3332 273.332C64.537 273.373 64.7089 273.317 64.849 273.234C69.3353 277.482 73.8067 281.74 78.2749 286.005C78.3067 286.245 78.347 286.489 78.3746 286.736C78.4755 287.485 79.28 287.688 79.7024 287.364C83.1698 290.671 86.6382 293.978 90.1087 297.277C90.9472 297.163 91.5469 296.951 91.7931 296.621C87.777 292.797 83.7652 288.966 79.7448 285.13C78.1825 273.33 76.1756 261.63 73.7207 250.019L73.7175 250.007C73.293 249.437 72.8483 248.874 72.3962 248.325C72.1085 247.969 71.8061 247.622 71.5046 247.277C74.1251 259.204 76.2573 271.244 77.9204 283.382C68.2325 274.149 58.5298 264.928 48.7274 255.832C43.7699 251.237 38.7381 246.754 33.6925 242.281C33.6564 242.173 33.6267 242.069 33.5874 241.97C33.5354 241.786 33.4325 241.671 33.3189 241.576C32.7766 234.473 31.8331 227.438 30.4703 220.486C29.8813 220.247 29.2943 220.005 28.7096 219.774C30.0872 226.589 31.0625 233.489 31.6357 240.456C29.1097 238.208 26.5763 235.956 24.0545 233.682C16.6433 227.016 10.1479 219.078 2.71432 212.456L0.0769043 212.345C7.97535 219.061 14.6649 227.417 22.3829 234.384C23.7478 235.62 25.1201 236.839 26.4882 238.067C19.5067 234.232 12.2727 230.991 4.97071 227.922L5.73912 229.862L5.82827 230.095C14.5089 233.764 23.0792 237.723 31.2079 242.708C31.4128 242.835 31.607 242.841 31.7821 242.779C31.8002 242.797 31.8171 242.818 31.8373 242.829C31.8405 242.841 31.8405 242.86 31.8362 242.868C31.8723 243.387 32.3255 243.753 32.7745 243.665C37.7606 248.093 42.7414 252.519 47.6363 257.06C52.7328 261.791 57.8028 266.557 62.8548 271.339C51.6206 269.203 40.3301 267.591 28.9696 266.515L30.6996 268.363Z" fill="#FFE6E8"/>
<path d="M19.2601 90.8607C19.2654 90.8891 19.2845 90.9073 19.2908 90.9357C23.0002 103.792 22.426 117.834 20.7502 131.385C20.6196 132.593 20.453 133.789 20.2906 134.974L20.3023 134.977C20.28 135.062 20.2736 135.141 20.263 135.231C19.2516 142.67 18.0119 150.138 17.1162 157.612C17.1162 157.612 17.1119 157.625 17.1236 157.627C16.8869 159.546 16.6768 161.457 16.5155 163.372L16.5133 163.383C15.8394 170.709 15.659 178.045 16.4857 185.354C16.957 189.57 18.048 194.123 19.6517 198.797C20.3405 200.823 21.1323 202.878 22.0153 204.922C33.1519 230.85 58.4434 256.764 81.0286 241.975C81.7079 241.535 82.3712 241.065 83.043 240.557C85.4979 238.671 87.922 236.273 90.2739 233.325C94.3122 228.255 96.904 222.054 98.9524 215.747C101.115 209.089 102.731 202.142 102.826 195.098C103.029 181.89 97.8698 169.289 90.3736 158.648L90.3768 158.636C89.4068 157.283 88.4197 155.95 87.3849 154.66L87.3881 154.646C86.4945 153.527 85.5722 152.426 84.6403 151.363C80.3504 146.454 75.6381 142.034 70.7305 137.849C70.0321 137.237 69.3179 136.632 68.5908 136.038C62.2101 130.725 55.5439 125.726 49.0602 120.527C48.1665 119.806 47.2718 119.085 46.3814 118.35C45.5705 117.692 44.7618 117.02 43.9573 116.339C36.3656 109.947 29.1262 102.994 23.2772 94.8947C21.1301 91.9308 19.1571 88.8182 17.4409 85.5158C18.1382 87.2653 18.7496 89.0579 19.2601 90.8607" fill="url(#paint1_linear)"/>
<path d="M81.0285 241.974C78.7244 239.19 76.5126 236.339 74.4048 233.412C57.0074 230.291 40.7286 222.196 27.2603 209.973C25.5378 208.417 23.7738 206.729 22.0152 204.923L19.6516 198.796C23.1795 202.809 26.8889 206.397 30.3944 209.463C42.5308 220.054 56.9639 227.18 72.2789 230.414C68.3774 224.745 64.8199 218.844 61.5626 212.726C61.4162 212.722 61.2474 212.7 61.0808 212.626C40.6321 203.26 24.5921 185.197 16.5122 163.383L16.5154 163.371C16.6767 161.458 16.8869 159.545 17.1235 157.628C24.0551 180.116 39.4593 198.987 59.7138 209.171C54.5557 198.969 50.2074 188.204 46.4673 176.994C43.6898 168.683 41.047 160.331 38.4468 151.953C38.3895 151.937 38.3406 151.936 38.278 151.891C31.2584 147.4 25.2024 141.689 20.3022 134.977L20.2906 134.973L20.7512 131.386C25.2098 137.984 30.7882 143.675 37.2878 148.216C35.0908 141.132 32.9098 134.04 30.7022 126.953C27.0014 115.145 23.8779 102.617 19.2908 90.9353C19.2855 90.908 19.2653 90.8887 19.26 90.8614L23.2771 94.8954C26.3497 103.702 28.7886 112.815 31.5439 121.608C34.2397 130.24 36.91 138.877 39.6026 147.521C42.2357 144.733 42.5202 139.294 43.002 135.765C43.6579 131.055 43.9933 126.293 44.0315 121.537C44.0496 119.794 44.0167 118.064 43.9572 116.339L46.3813 118.35C46.463 121.657 46.3845 124.958 46.1552 128.269C45.7265 134.527 45.9164 145.982 40.4347 150.157C42.4862 156.736 44.5441 163.289 46.6509 169.844C48.2577 174.849 49.9739 179.768 51.7973 184.598C60.3707 169.599 66.034 153.135 68.5908 136.038L70.7315 137.849C67.9773 155.14 62.105 171.795 53.3108 186.89C53.1791 187.117 53.0093 187.253 52.8247 187.345C57.3459 198.994 62.5889 210.082 68.8582 220.488C70.9554 213.745 74.8824 208.181 78.3646 202.077C81.9689 195.784 84.7432 188.957 86.4392 181.794C88.5545 172.819 88.9747 163.553 87.3849 154.659L87.388 154.646L87.7584 155.137L90.3768 158.635L90.3736 158.648C91.0263 164.689 90.8236 170.84 89.8355 176.962C88.6744 184.161 86.4626 191.162 83.408 197.682C79.3039 206.401 72.9083 213.701 70.5755 223.288C74.3443 229.29 78.4697 235.051 83.0429 240.558L81.0285 241.974Z" fill="#FFE6E8"/>
<path d="M266.389 40.0429C265.315 45.5707 264.619 51.1848 264.306 56.8034L264.195 58.9686L264.179 59.2276C264.012 63.4808 264.057 67.7329 264.305 71.9781C264.933 82.8871 266.903 93.7098 270.114 104.095C270.373 104.947 270.651 105.795 270.929 106.643L270.932 106.65C273.144 113.346 275.879 119.839 279.111 126.041C283.373 134.215 288.498 142.436 294.677 149.108C296.363 150.923 308.488 160.375 313.538 162.19C314.361 162.492 315.004 162.585 315.372 162.401C315.528 162.336 315.628 162.216 315.688 162.052C318.703 153.277 319.554 143.827 319.885 134.485C320.175 126.485 320.083 118.377 318.433 110.59L318.434 110.577C318.284 109.846 318.112 109.111 317.927 108.385C317.813 107.915 317.679 107.447 317.548 106.982C315.527 99.7772 312.136 93.0668 308.384 86.6859C303.298 78.0284 297.493 69.8379 291.007 62.3187C290.566 61.8097 290.124 61.302 289.682 60.8044C283.324 53.6272 276.34 47.1008 268.777 41.4265C268.009 40.8471 267.234 40.2735 266.452 39.7168C266.434 39.8259 266.406 39.9338 266.389 40.0429" fill="url(#paint2_linear)"/>
<path d="M194.586 1.9369C175.166 6.07081 156.269 19.0292 149.505 38.9467C144.313 54.2315 146.181 72.9301 135.877 84.8831C129.437 92.3534 119.747 95.2264 110.825 98.7071C78.7891 111.205 50.4897 136.621 37.1488 170.209C23.8078 203.797 27.1192 245.394 48.7226 273.633C67.8786 298.674 99.0256 310.964 129.263 310.995C142.064 311.007 154.803 309.044 167.525 307.079C183.729 304.576 199.905 302.074 216.143 303.657C249.63 306.926 280.017 327.251 313.455 331.042C362.222 336.568 412.369 301.491 427.218 251.465C431.102 238.375 432.754 224.185 429.591 210.873C424.182 188.114 405.681 171.478 386.07 160.946C366.458 150.414 344.931 144.394 325.443 133.602C320.007 130.592 314.557 127.03 311.204 121.547C303.999 109.766 308.813 94.3232 310.961 80.43C313.255 65.5961 312.018 49.7784 305.347 36.5463C296.934 19.8687 279.595 9.39588 262.567 6.30936C246.693 3.43074 230.368 2.32635e-06 214.143 2.32635e-06C207.595 2.32635e-06 201.065 0.557798 194.586 1.9369" fill="url(#paint3_linear)"/>
<path d="M69.0503 70.0378C67.9847 75.4066 67.2853 80.8594 66.9594 86.319L66.8427 88.4217L66.8247 88.6751C66.6474 92.8067 66.6729 96.9406 66.899 101.068C67.4646 111.673 69.3368 122.201 72.4147 132.31C72.6641 133.138 72.9305 133.964 73.1969 134.789L73.2022 134.796C75.3238 141.313 77.957 147.638 81.0731 153.679C85.1836 161.644 90.1305 169.657 96.1111 176.17C97.7413 177.942 109.488 187.183 114.389 188.97C115.187 189.267 115.814 189.362 116.17 189.184C116.322 189.12 116.42 189.003 116.479 188.845C119.446 180.331 120.308 171.15 120.669 162.073C120.982 154.296 120.925 146.418 119.351 138.841L119.353 138.829C119.21 138.117 119.045 137.402 118.868 136.696C118.759 136.238 118.633 135.784 118.506 135.329C116.57 128.319 113.302 121.78 109.68 115.564C104.772 107.126 99.1614 99.1376 92.8868 91.8002C92.4612 91.3038 92.0345 90.8084 91.6068 90.3234C85.4553 83.3177 78.6946 76.9436 71.365 71.3942C70.621 70.8273 69.8717 70.2662 69.1118 69.7209C69.0948 69.8288 69.0673 69.9333 69.0503 70.0378" fill="url(#paint4_linear)"/>
<path d="M73.197 134.789L73.2012 134.796C82.8264 141.174 92.1789 147.99 101.255 155.253C101.421 155.386 101.598 155.419 101.757 155.411C104.011 161.35 106.246 167.293 108.475 173.241C108.403 173.471 108.338 173.708 108.261 173.942C108.039 174.661 108.676 175.226 109.19 175.137C110.921 179.749 112.652 184.363 114.389 188.969C115.188 189.267 115.814 189.362 116.17 189.184C114.163 183.848 112.162 178.505 110.156 173.156C113.66 161.844 116.724 150.41 119.351 138.841L119.353 138.83C119.21 138.117 119.047 137.402 118.868 136.695C118.76 136.238 118.633 135.784 118.506 135.331C115.897 147.261 112.802 159.059 109.248 170.722C104.408 157.84 99.5499 144.962 94.551 132.149C92.0208 125.674 89.378 119.262 86.7162 112.854C86.729 112.74 86.7459 112.635 86.7512 112.525C86.781 112.337 86.7374 112.184 86.6748 112.045C89.1414 105.424 91.2194 98.6742 92.8868 91.8003C92.4612 91.305 92.0356 90.8085 91.6068 90.3235C90.0085 97.0827 88.0142 103.727 85.6326 110.241C84.3049 107.025 82.9718 103.802 81.6579 100.565C77.7915 91.0653 75.2719 80.8629 71.3651 71.3932L69.0503 70.0379C73.3328 79.8132 75.8524 90.4825 79.8696 100.398C80.5785 102.153 81.3002 103.899 82.0156 105.65C77.3563 98.8912 72.2248 92.5443 66.9595 86.3191L66.8417 88.4229L66.8247 88.674C73.0749 96.0921 79.1043 103.719 84.3134 112.053C84.445 112.265 84.6158 112.363 84.7994 112.39C84.8058 112.416 84.8132 112.441 84.827 112.462C84.826 112.473 84.8175 112.49 84.8111 112.495C84.6264 112.978 84.8812 113.522 85.3184 113.656C87.9452 119.997 90.5657 126.332 93.064 132.729C95.6622 139.393 98.2221 146.075 100.759 152.764C91.5856 145.502 82.144 138.683 72.4158 132.309L73.197 134.789Z" fill="#FFE6E8"/>
<path d="M424.417 184.214C422.241 196.323 419.121 208.24 415.12 219.805C414.048 222.929 412.88 226.053 411.119 228.79C408.794 232.403 405.505 235.197 403.19 238.811C401.163 241.991 399.964 245.672 398.457 249.171C389.712 269.391 370.894 282.683 360.684 302.086C357.045 309.015 354.507 316.683 349.837 322.864C348.436 324.725 346.782 326.475 344.701 327.327C340.784 328.951 336.496 327.1 332.697 325.021C332.369 324.852 332.039 324.67 331.72 324.487C325.299 320.863 318.889 317.24 312.469 313.615C303.404 308.503 294.331 303.38 285.267 298.268C283.27 297.143 281.254 295.996 279.63 294.337C278.197 292.872 277.115 291.067 275.767 289.532C273.273 286.692 269.951 284.875 266.703 283.115C251.017 274.617 235.319 266.12 219.633 257.622C210.856 252.873 197.557 246.671 193.227 236.401C191.179 231.518 193.089 227.086 195.53 222.838C199.117 216.578 202.991 210.489 206.727 204.321C210.824 197.539 214.931 190.746 219.039 183.964C223.188 177.091 227.349 170.219 231.499 163.345C238.896 151.111 246.336 138.797 251.537 125.323C254.339 118.076 256.716 110.158 262.321 105.103C266.301 113.521 270.939 122.586 279.11 126.107C282.241 127.448 285.67 127.857 288.736 129.345C292.196 131.026 294.966 133.946 297.811 136.649C313.042 151.133 332.039 160.324 351.292 167.469C369.366 174.195 388.406 179.34 407.436 178.863C410.609 178.785 413.772 178.546 416.935 178.136C419.737 177.773 423.398 177.773 424.428 180.591C424.842 181.737 424.64 183.009 424.417 184.214Z" fill="#ADDDED"/>
<path d="M424.417 184.214C422.242 196.323 419.121 208.24 415.12 219.805C414.048 222.929 412.881 226.053 411.119 228.79C408.795 232.403 405.506 235.197 403.191 238.811C401.164 241.991 399.964 245.672 398.457 249.171C389.712 269.391 370.894 282.683 360.684 302.086C357.045 309.015 354.507 316.683 349.838 322.864C348.437 324.725 346.782 326.475 344.702 327.327C340.784 328.951 336.497 327.1 332.697 325.021C333.886 320.522 336.635 316.002 336.434 311.276C336.369 309.673 335.955 308.05 336.263 306.481C336.762 304.005 338.864 302.346 340.499 300.53C344.84 295.712 346.432 288.805 350.008 283.33C354.677 276.184 362.287 272.028 368.4 266.257C373.866 261.075 378.122 254.623 382.314 248.216C383.949 245.718 385.647 243.047 385.828 240.003C386.018 236.924 384.617 233.835 385.18 230.813C385.88 227.052 389.255 224.723 391.718 221.94C395.911 217.216 397.684 210.638 398.807 204.241C399.943 197.834 400.591 191.235 403.095 185.293C404.179 182.725 405.664 180.591 407.436 178.863C410.609 178.785 413.772 178.546 416.935 178.136C419.737 177.772 423.399 177.773 424.428 180.591C424.842 181.737 424.64 183.009 424.417 184.214Z" fill="#8CBACA"/>
<path d="M233.924 207.945C232.946 208.433 230.936 208.708 228.88 208.889C227.506 209.011 231.509 212.781 232.026 214.149C232.298 214.87 232.511 215.629 232.924 216.27C233.334 216.911 234.008 217.429 234.733 217.372C235.355 217.324 235.877 216.877 236.356 216.451C237.785 215.177 239.215 213.905 240.645 212.631C242.85 210.667 244.531 206.843 241.365 204.598C238.933 202.871 236.133 206.846 233.924 207.945Z" fill="#CE9F9F"/>
<path d="M220.693 209.799C215.084 210.739 209.676 212.778 204.068 213.725C196.741 214.963 189.199 214.317 181.917 215.839C180.15 216.21 178.098 217.024 177.709 218.908C177.377 220.521 178.463 222.035 179.478 223.279C181.477 225.726 183.476 228.173 185.474 230.619C186.392 231.742 187.336 232.917 187.717 234.352C187.936 235.174 188.06 236.199 188.796 236.534C189.094 236.67 189.43 236.652 189.754 236.628C202.646 235.675 214.754 229.952 226.554 224.314C229.087 223.104 231.619 221.893 234.153 220.683C235.535 220.022 237.058 219.202 237.534 217.665C238.367 214.981 235.192 210.788 232.959 209.711C229.67 208.124 224.114 209.224 220.693 209.799Z" fill="#FAB8B8"/>
<path d="M203.899 323.032C198.807 324.272 193.563 324.598 188.345 324.823C179.637 325.199 170.846 325.299 162.287 323.54C155.034 322.049 147.77 319.22 140.462 320.362C138.998 298.023 145.425 276.053 151.775 254.714C152.006 253.939 152.272 253.109 152.89 252.633C153.518 252.15 154.355 252.153 155.126 252.208C160.552 252.584 165.768 254.477 171.046 255.873C180.672 258.415 190.673 259.319 200.559 258.54C202.775 258.366 205.058 258.115 207.174 258.841C209.347 259.586 211.106 261.282 212.736 262.991C217.879 268.388 222.451 274.407 226.356 280.885C229.706 286.444 234.795 294.255 235.701 300.925C236.579 307.393 227.944 311.081 223.51 313.962C217.401 317.929 210.899 321.327 203.899 323.032Z" fill="#0C0B0D"/>
<path d="M300.101 150.724C295.135 152.543 289.913 153.28 284.988 155.361C283.353 156.052 281.751 156.837 280.201 157.723C276.689 159.734 273.483 162.301 270.925 165.607C265.544 172.548 263.283 182.261 256.502 187.612C253.074 190.315 248.85 191.588 245.23 193.984C241.622 196.393 238.47 200.698 239.382 205.14C239.628 206.333 240.157 207.503 240.03 208.707C240.03 208.754 240.03 208.809 240.019 208.855C239.786 210.502 238.364 211.615 237.058 212.524C222.03 222.987 206.12 232.018 189.585 239.47C190.656 257.339 198.362 273.573 208.933 287.727V287.737C213.439 293.781 218.468 299.441 223.718 304.682C230.697 305.878 237.558 307.721 244.359 309.894C244.519 309.81 244.679 309.726 244.837 309.641C254.262 304.62 263.06 298.303 271.138 291.09C277.198 285.682 282.844 279.787 288.469 273.879C288.629 273.72 288.788 273.549 288.947 273.38C298.34 263.519 307.743 253.647 316.551 243.173C319.832 239.288 323.208 235.166 327.792 233.324C332.366 231.495 338.511 232.905 340.412 237.732C342.788 237.289 344.433 235.028 345.845 232.937C348.477 229.052 351.098 225.167 353.72 221.281C357.583 215.58 361.606 209.32 361.468 202.277C361.416 199.551 360.725 196.881 360.034 194.246C358.825 189.6 357.604 184.942 356.394 180.284C355.397 176.48 354.314 172.503 351.746 169.65C350.111 167.845 347.989 166.641 345.909 165.471C335.401 159.541 324.735 153.532 313.145 150.409C310.683 149.742 308.694 149.381 306.754 149.381C304.656 149.381 302.616 149.804 300.101 150.724" fill="url(#paint5_linear)"/>
<path d="M326.315 189.905C324.485 188.819 322.136 189.332 320.356 190.51C318.575 191.687 317.202 193.433 315.708 195.003C314.216 196.573 312.475 198.039 310.409 198.401C308.392 198.756 306.352 198.012 304.308 197.987C301.066 197.949 298.03 199.723 295.516 201.912C293.002 204.104 290.853 206.743 288.321 208.909C286.127 210.786 283.665 212.289 281.53 214.241C279.395 216.194 277.545 218.738 277.154 221.714C276.968 223.128 277.146 224.65 277.914 225.818C278.909 227.33 280.745 228.006 282.472 227.947C284.199 227.89 285.849 227.204 287.431 226.464C294.017 223.375 300.123 219.122 305.445 213.948C307.833 211.628 309.9 209.245 311.685 206.386C313.383 203.663 316.134 202.18 318.405 200.05C321.514 197.137 324.199 193.705 326.315 189.905Z" fill="#353330"/>
<path d="M280.201 157.724C278.323 163.642 274.98 168.936 271.679 174.127C269.97 176.831 268.251 179.523 266.542 182.227C265.045 184.579 263.549 186.929 261.893 189.157C257.786 194.678 252.755 199.312 247.491 203.538C245.4 205.208 242.513 207.764 240.03 208.707C240.158 207.503 239.628 206.333 239.382 205.14C238.47 200.698 241.622 196.393 245.23 193.985C248.849 191.588 253.074 190.315 256.502 187.612C263.284 182.261 265.544 172.548 270.925 165.607C273.483 162.302 276.688 159.734 280.201 157.724" fill="#E28D0E"/>
<path d="M293.288 262.985V339.358C293.288 343.04 290.507 346.028 287.068 346.028C283.63 346.028 280.838 343.04 280.838 339.358V262.985C280.838 259.317 283.63 256.329 287.068 256.329C288.788 256.329 290.347 257.078 291.473 258.282C292.598 259.486 293.288 261.144 293.288 262.985Z" fill="#2E215E"/>
<path d="M293.288 277.31V302.37C292.747 302.2 292.204 302.007 291.674 301.814C287.928 300.405 284.298 298.656 280.838 296.588V275.481C285.105 275.582 290.347 276.742 293.288 277.31Z" fill="#03010C"/>
<path d="M366.18 251.694C366.01 252.262 365.533 252.648 365.076 252.989C355.726 260.099 345.006 264.951 335.593 271.971C327.814 277.765 320.512 285.239 311.192 287.057C305.472 288.169 299.613 287.001 293.914 285.83C283.057 283.615 272.199 281.389 261.342 279.172C248.149 276.47 234.872 273.743 222.412 268.393C221.945 268.188 221.446 267.95 221.191 267.483C220.577 266.347 221.838 265.12 222.91 264.507C238.586 255.499 255.27 248.887 269.63 237.424C271.521 235.926 273.42 234.324 275.67 233.586C277.325 233.041 279.097 232.983 280.827 232.961C295.187 232.802 309.568 234.79 323.419 238.844L324.342 239.118C333.639 241.913 342.82 245.559 352.234 247.593C355.704 248.331 359.208 248.865 362.753 249.047C364.387 249.138 366.68 250.023 366.18 251.694Z" fill="#AFCCD2"/>
<path d="M367.089 250.856C366.784 250.832 366.481 250.828 366.176 250.807C366.265 251.073 366.276 251.37 366.179 251.697C366.009 252.262 365.534 252.65 365.081 252.994C355.722 260.102 345.006 264.95 335.588 271.971C327.809 277.769 320.515 285.239 311.188 287.054C305.476 288.166 299.617 286.997 293.914 285.83C283.054 283.61 272.196 281.389 261.336 279.169C248.151 276.472 234.869 273.745 222.413 268.388C222.086 268.247 221.749 268.085 221.485 267.844C219.91 270.468 222.935 274.296 224.943 275.694C227.801 277.684 231.312 278.192 234.689 278.703C249.028 280.866 263.245 283.94 277.244 287.903C289.784 291.454 303.054 295.727 315.456 291.649C319.687 290.257 323.603 287.937 327.332 285.384C337.553 278.384 346.682 269.48 357.63 263.879C360.228 262.55 362.978 261.371 365.047 259.226C367.115 257.082 368.34 253.632 367.089 250.856Z" fill="#659296"/>
<path d="M352.234 247.592C351.82 248.285 351.258 248.91 350.695 249.455C347.554 252.534 343.935 254.988 340.337 257.419C335.9 260.429 331.464 263.428 327.028 266.427C321.509 270.153 315.937 273.913 309.802 276.333C303.678 278.741 296.864 279.73 290.592 277.798C285.954 276.367 281.856 273.425 277.431 271.369C274.469 269.983 265.502 270.369 264.494 266.836C263.348 262.815 270.692 258.702 273.218 257.123C278.068 254.09 283.003 251.205 287.992 248.468C291.515 246.525 295.092 244.661 298.86 243.366C303.636 241.73 308.655 241.049 313.634 240.379C317.168 239.901 320.755 239.425 324.342 239.118C333.639 241.912 342.82 245.559 352.234 247.592Z" fill="#9ABCC1"/>
<path d="M247.01 254.684C246.098 255.323 245.112 256.133 245.009 257.295C244.841 259.205 247.021 260.229 248.769 260.659L291.365 271.102C293.595 271.649 295.832 272.197 298.109 272.436C303.219 272.971 308.404 271.92 313.194 269.944C318.608 267.712 323.536 264.338 328.421 260.988C332.69 258.062 336.976 255.121 340.787 251.543C343.363 249.126 345.743 246.404 348.717 244.585C350.677 243.388 353.196 242.086 353.223 239.672C347.09 236.439 340.385 234.69 333.743 232.964C330.746 232.186 327.75 231.408 324.753 230.63C321.225 229.713 317.696 228.796 314.167 227.879C307.361 226.113 300.53 224.34 293.558 223.635C289.667 223.241 285.603 223.213 282.022 224.888C275.11 228.124 272.093 236.488 266.489 241.502C260.568 246.801 253.436 250.19 247.01 254.684Z" fill="white"/>
<path d="M341.196 237.505C341.111 238.3 340.835 239.027 340.262 239.549C339.147 240.56 337.481 240.288 336.039 240.027C332.97 239.459 329.841 239.254 326.719 239.379C325.446 239.436 324.119 239.572 323.037 240.276C321.796 241.094 321.053 242.526 320.012 243.628C318.292 245.457 315.989 246.161 313.57 246.661C310.757 247.263 307.775 247.615 305.365 249.194C302.119 251.318 300.442 255.272 298.371 258.68C296.291 262.088 293.001 265.393 289.233 264.837C286.071 264.36 283.153 262.054 280.053 260.815C281.423 260.27 282.78 259.713 284.149 259.168C287.641 257.771 291.197 256.328 294.147 253.886C296.875 251.625 298.965 248.615 301.523 246.138C303.901 243.821 306.681 241.98 309.675 240.72C309.738 240.697 309.749 240.629 309.738 240.526C309.994 240.583 310.301 240.572 310.694 240.458C312.201 240.004 314.451 238.311 315.639 237.209C317.731 235.289 320.692 234.994 323.441 234.824C323.503 234.824 323.568 234.812 323.631 234.812C324.13 234.778 324.618 234.756 325.118 234.733C326.454 234.641 327.791 234.574 329.128 234.506C331.931 234.369 334.755 234.267 337.566 234.199C337.566 233.732 341.27 234.726 342.014 235.234C342.289 235.188 341.596 236.427 341.196 237.505Z" fill="#F4F2F2"/>
<path d="M337.619 234.199C334.785 234.268 331.952 234.369 329.129 234.507C327.294 234.598 325.468 234.699 323.631 234.812C323.568 234.812 323.504 234.824 323.441 234.824C320.692 234.994 317.731 235.289 315.639 237.209C314.451 238.311 312.201 240.004 310.694 240.458C309.207 240.901 308.975 239.936 307.944 238.709C306.905 237.482 306.267 235.937 305.441 234.54C301.757 228.326 294.412 225.452 287.536 225.645C286.687 225.667 285.593 225.554 285.38 224.668C285.265 224.225 285.465 223.76 285.668 223.35C288.533 217.625 294.094 214.137 299.476 211.138C302.957 209.207 306.469 207.334 310.036 205.594C310.375 205.424 310.714 205.255 311.055 205.094C311.49 204.89 311.894 204.72 312.297 204.595C314.993 203.697 316.977 204.47 319.769 206.152C325.436 209.57 329.533 215.375 333.225 220.953C335.827 224.896 338.49 229.462 337.619 234.199Z" fill="#E9B4B4"/>
<path d="M264.808 245.176C264.161 246.704 263.587 248.321 262.506 249.535C261.603 250.548 260.414 251.204 259.25 251.839C257.717 252.676 256.186 253.513 254.654 254.349C250.506 256.614 245.997 259.31 244.488 264.026C244.196 264.938 243.994 265.963 243.306 266.587C242.71 267.13 241.883 267.244 241.122 267.439C238.034 268.232 235.421 270.797 234.316 273.983C233.418 276.572 233.477 279.441 233.954 282.155C237.138 283.277 240.321 284.4 243.505 285.522C245.422 286.198 247.424 286.883 249.424 286.581C250.607 286.403 251.729 285.882 252.911 285.691C254.508 285.432 256.169 285.779 257.734 285.354C261.962 284.208 263.218 278.531 266.101 275.027C267.377 273.474 269.05 272.292 270.103 270.56C271.157 268.826 271.325 266.164 269.753 264.962C274.551 263.032 279.348 261.103 284.146 259.172C287.642 257.766 291.196 256.325 294.152 253.881C296.878 251.626 298.97 248.617 301.52 246.138C303.901 243.822 306.681 241.977 309.677 240.724C310.512 240.375 303.786 231.705 303.099 231.064C300.078 228.242 296.477 226.238 292.617 225.097C285.56 223.013 277.809 228.452 272.783 233.428C269.441 236.734 266.689 240.735 264.808 245.176Z" fill="#FAB8B8"/>
<path d="M346.386 151.919C346.397 156.69 346.63 161.472 347.087 166.221C342.555 168.118 337.822 169.379 333.003 170.208C330.509 170.639 327.983 170.958 325.456 171.197C323.641 171.367 321.073 170.958 320.67 168.572C320.394 166.891 321.859 165.255 322.591 163.915C325.022 159.53 326.837 154.963 330.074 151.135C332.961 147.715 336.59 145.034 340.592 143.353C341.313 143.058 342.056 142.785 342.81 142.581C344.306 142.172 345.844 142.024 347.341 142.399C346.493 145.466 346.386 148.715 346.386 151.919Z" fill="#E1AAAA"/>
<path d="M340.389 148.192C336.25 154.361 333.671 161.733 333.066 169.31C333.045 169.606 333.025 169.901 333.003 170.208C330.508 170.64 327.984 170.958 325.457 171.196C323.642 171.367 321.073 170.958 320.67 168.572C320.394 166.891 321.859 165.255 322.591 163.914C325.022 159.53 326.836 154.963 330.073 151.135C332.96 147.715 336.59 145.034 340.591 143.353C341.313 143.058 342.056 142.785 342.809 142.58C343.701 144 342.013 145.773 340.389 148.192Z" fill="#C69E9E"/>
<path d="M355.513 127.869C355.089 133.22 352.977 138.4 349.612 142.364C348.933 143.171 348.149 143.955 347.161 144.148C346.131 144.364 345.027 143.898 344.04 144.262C343.373 144.523 342.873 145.114 342.406 145.693C339.54 149.305 336.929 153.145 334.626 157.189C333.438 159.28 332.291 161.461 330.583 163.074C327.791 165.698 323.907 166.448 320.246 167.107C318.717 167.379 317.146 167.64 315.618 167.561C314.748 167.516 313.899 167.368 313.082 167.05C310.704 166.13 308.985 163.96 307.371 161.87C306.002 160.097 304.623 158.28 303.731 156.178C303.009 154.486 302.638 152.645 302.277 150.816C300.654 142.637 299.062 134.367 299.104 126.006C299.125 121.292 299.666 116.577 300.717 111.988C301.322 109.307 304.081 105.092 301.29 103.343C306.554 103.093 311.638 102.502 316.775 101.65C318.759 101.332 320.744 100.957 322.761 100.56C329.914 99.1397 337.333 97.9355 344.518 99.7758C345.548 100.037 346.588 100.378 347.362 101.139C348.732 102.48 348.88 104.683 348.933 106.66C349.039 110.295 349.135 113.942 348.774 117.554C348.487 120.383 347.957 123.416 349.21 125.927C350.217 125.279 351.279 124.609 352.457 124.484C353.635 124.359 354.962 124.927 355.386 126.108C355.578 126.665 355.556 127.278 355.513 127.869Z" fill="#FAB8B8"/>
<path d="M355.514 127.869C355.089 133.22 352.977 138.4 349.613 142.364C348.933 143.171 348.149 143.955 347.161 144.148C346.131 144.364 345.028 143.898 344.041 144.262C343.373 144.523 342.873 145.114 342.406 145.693C339.54 149.305 336.93 153.145 334.626 157.189C333.438 159.28 332.292 161.461 330.583 163.074C327.792 165.698 323.907 166.448 320.246 167.107C318.717 167.379 317.146 167.64 315.618 167.561C315.406 165.823 316.648 164.085 318.124 163.187C319.736 162.199 321.636 161.892 323.366 161.131C327.866 159.143 330.86 153.815 330.381 148.624C330.084 145.329 328.598 141.796 330.116 138.922C331.294 136.673 333.947 135.708 335.231 133.526C336.622 131.152 336.038 128.085 335.401 125.359C334.818 122.825 334.149 120.144 332.376 118.338C329.394 115.316 324.629 115.964 320.659 117.111C318.017 117.884 312.795 120.224 310.555 117.509C308.422 114.93 310.64 110.977 311.999 108.693C313.453 106.262 315.045 103.888 316.775 101.65C318.76 101.332 320.744 100.957 322.761 100.56C329.914 99.1397 337.333 97.9355 344.518 99.7758C345.548 100.037 346.588 100.378 347.362 101.139C348.732 102.48 348.88 104.683 348.933 106.66C349.039 110.295 349.135 113.942 348.774 117.554C348.488 120.383 347.957 123.416 349.21 125.927C350.217 125.279 351.279 124.609 352.457 124.484C353.635 124.359 354.962 124.927 355.386 126.108C355.578 126.665 355.556 127.278 355.514 127.869Z" fill="#E4ACAC"/>
<path d="M317.982 81.7749C313.173 82.5008 308.55 84.7422 304.982 88.266C301.412 91.7899 298.936 96.5997 298.224 101.741C298.008 103.306 297.941 104.933 297.304 106.363C296.791 107.514 295.933 108.469 295.473 109.646C294.479 112.202 295.673 115.298 297.727 116.981C299.782 118.663 302.484 119.164 305.071 119.157C310.211 119.144 315.222 117.339 319.827 114.896C324.433 112.454 328.714 109.373 333.144 106.584C334.362 105.817 335.712 105.045 337.112 105.255C338.652 105.484 339.833 106.86 340.571 108.326C342.483 112.121 342.244 116.679 342.23 120.991C342.226 122.663 342.294 124.45 343.202 125.813C344.688 128.049 348.342 127.953 349.725 125.642C349.997 125.188 350.189 124.675 350.532 124.278C350.835 123.928 351.237 123.694 351.595 123.406C353.234 122.081 353.802 119.75 354.157 117.585C355.136 111.613 355.313 105.49 354.677 99.4647C354.148 94.4368 352.175 92.1614 348.056 90.0166C344.336 88.0809 341.339 84.8899 337.468 83.2199C333.507 81.5125 329.122 81.4228 324.853 81.4171C324.755 81.4171 324.658 81.4171 324.56 81.4171C322.361 81.4171 320.158 81.4455 317.982 81.7749" fill="#2F2A41"/>
<path d="M76.0986 282.644C75.6486 283.143 75.7611 286.729 75.569 287.525C75.119 289.381 74.1765 291.14 73.337 292.815C72.9751 293.537 72.6185 294.264 72.2693 294.998C89.2368 305.687 109.446 310.974 129.263 310.995C141.78 311.007 154.239 309.129 166.681 307.209C166.37 301.969 165.518 296.768 164.125 291.734C163.834 290.683 163.466 289.562 162.612 288.96C161.964 288.503 161.151 288.433 160.376 288.377C144.037 287.19 127.697 286.003 111.358 284.816C103.188 284.223 95.02 283.629 86.8499 283.037C85.5052 282.939 81.3501 282.069 78.5651 282.069C77.4019 282.069 76.4785 282.22 76.0986 282.644" fill="url(#paint6_linear)"/>
<path d="M187.813 186.712C189.407 195.615 189.851 204.754 189.129 213.786C188.926 216.321 188.634 218.903 189.145 221.388C190.08 225.936 193.549 229.41 197.269 231.825C200.988 234.241 205.118 235.911 208.682 238.581C204.743 241.751 201.999 246.378 200.172 251.278C198.345 256.176 197.369 261.381 196.402 266.552C186.51 263.972 177.06 259.465 168.654 253.317C169.792 240.423 170.932 227.531 172.071 214.637C172.602 208.636 173.132 202.633 173.662 196.63C174.232 190.189 174.801 183.748 175.371 177.306C175.664 173.981 175.958 170.656 176.252 167.332C176.432 165.294 175.983 160.512 177.216 158.978C180.659 154.694 182.778 166.876 183.355 168.814C185.107 174.699 186.726 180.64 187.813 186.712Z" fill="#BECFD3"/>
<path d="M167.7 142.308C155.049 143.603 142.366 144.898 129.885 147.477C129.8 147.499 129.714 147.511 129.63 147.533C123.379 148.84 117.181 150.453 111.12 152.555C108.966 153.304 106.535 153.872 104.965 155.735C103.574 157.371 102.663 159.655 101.399 161.438C98.9894 164.801 96.3148 167.959 93.4068 170.833C91.3903 172.855 89.257 174.73 87.0388 176.467C84.7888 178.24 82.3901 179.909 80.7345 182.318C79.3866 184.294 78.633 186.645 77.9113 188.963C69.8133 215.023 64.305 242.003 61.5137 269.302C61.3651 270.812 61.2165 272.357 61.6188 273.811C61.9701 275.049 62.6918 276.14 63.4029 277.185C69.6021 286.375 76.5104 296.111 86.6355 299.439C89.1827 292.271 92.6214 285.467 96.803 279.241C98.2889 277.037 100.008 274.8 102.418 273.97C104.254 273.334 106.238 273.608 108.149 273.868C125.885 276.242 143.841 276.809 161.682 275.538C163.062 275.447 164.537 275.288 165.599 274.334C166.522 273.493 166.936 272.198 167.307 270.971C174.1 248.149 177.825 224.441 181.529 200.823C182.113 197.11 182.697 193.371 182.771 189.611C182.867 185.021 182.209 180.456 181.551 175.922C180.457 168.345 179.365 160.768 178.26 153.179C177.666 149.033 176.562 144.171 172.901 142.649C171.996 142.272 171.037 142.156 170.064 142.156C169.277 142.156 168.482 142.232 167.7 142.308Z" fill="url(#paint7_linear)"/>
<path d="M179.492 217.005C179.491 216.994 179.486 216.988 179.485 216.978C179.515 216.935 179.547 216.898 179.577 216.855C179.969 216.301 179.725 215.717 179.291 215.377C182.34 211.952 185.392 207.94 185.444 203.985C185.453 203.378 184.822 203.032 184.347 203.31C184.16 203.42 183.981 203.542 183.8 203.666C183.833 203.453 183.874 203.244 183.899 203.031C184.014 202.074 182.615 201.456 182.059 202.215C178.375 207.245 175.891 213.03 171.947 217.967C168.122 222.754 164.085 229.612 158.647 232.233C158.62 232.245 158.639 232.292 158.666 232.281C160.127 231.745 161.561 231.051 162.957 230.241C165.197 229.479 167.146 228.181 168.928 226.613C168.937 226.621 168.949 226.631 168.952 226.616C168.954 226.605 168.959 226.595 168.962 226.584C170.32 225.385 171.584 224.034 172.807 222.646C173.88 222.139 174.99 221.845 175.871 221.843C177.926 221.837 179.943 223.321 181.921 223.805C183.448 224.178 184.155 222.129 182.948 221.196C181.433 220.026 179.827 219.175 179.492 217.005Z" fill="#BECFD3"/>
<path d="M112.858 271.005C112.454 266.113 107.919 264.233 105.418 260.761C102.419 256.601 102.816 250.789 103.356 245.567L105.339 226.427C105.878 221.216 106.354 215.677 104.944 210.768C104.861 208.244 104.604 205.822 104.319 203.787C104.243 203.244 104.146 202.707 104.039 202.172C103.639 199.1 102.696 196.736 101.271 194.673C100.017 192.513 98.4011 190.616 96.4153 189.119C95.2776 188.065 93.7981 187.234 91.7582 186.622C91.6988 186.604 91.6669 186.692 91.7168 186.727C96.3973 189.912 98.2132 196.962 99.6269 202.537C100.461 205.827 100.057 208.684 99.5739 211.61C99.1854 212.457 98.8553 213.343 98.5741 214.214C94.9528 225.445 93.9753 237.423 93.0244 249.262C92.8248 251.761 92.6242 254.283 92.9384 256.768C93.8289 263.816 100.368 275.035 107.455 276.543C111.005 277.298 113.179 274.9 112.858 271.005Z" fill="#BECFD3"/>
<path d="M236.181 240.377C236.348 243.098 237.138 245.723 237.924 248.318C238.638 250.683 239.724 253.418 242.001 253.908C242.802 254.081 243.628 253.929 244.432 253.777C246.241 253.436 248.05 253.096 249.858 252.755C254.109 251.953 258.584 251.043 261.856 248.029C264.563 245.539 266.091 241.928 268.175 238.825C272.093 232.984 277.927 229.011 283.615 225.184C285.45 223.95 287.399 222.677 289.564 222.603C290.961 222.557 292.78 222.787 293.344 221.419C293.48 221.089 293.517 220.693 293.765 220.45C293.988 220.231 294.317 220.2 294.593 220.066C295.31 219.717 295.541 218.665 295.239 217.885C294.938 217.106 294.249 216.574 293.533 216.221C293.116 216.015 292.651 215.833 292.396 215.422C292.22 215.143 292.169 214.792 292.003 214.505C291.62 213.843 290.785 213.721 290.062 213.667C286.711 213.416 283.36 213.165 280.011 212.914C278.636 212.811 277.223 212.712 275.91 213.161C272.151 214.441 270.54 219.618 266.818 221.018C265.626 221.467 264.312 221.48 263.139 221.989C260.793 223.004 259.567 225.684 258.153 227.93C255.609 231.966 251.804 235.016 247.548 236.693C245.401 237.539 243.132 238.039 240.844 238.139C238.911 238.223 235.983 237.148 236.181 240.377Z" fill="#D54CAF"/>
<path d="M289.344 222.715C289.09 221.814 288.2 221.309 287.358 221.579C280.28 223.878 273.019 225.898 265.773 227.58C264.913 227.78 264.369 228.688 264.556 229.607C264.717 230.405 265.376 230.949 266.108 230.949C266.221 230.949 266.335 230.937 266.449 230.911C273.778 229.209 281.124 227.166 288.283 224.84C289.125 224.566 289.599 223.615 289.344 222.715" fill="#B61D23"/>
<path d="M134.013 275.992C134.045 280.923 132.612 285.718 131.073 290.351C130.766 291.283 130.415 292.26 129.683 292.839C129.004 293.373 128.123 293.475 127.295 293.566C120.853 294.225 114.357 294.884 107.894 294.748C105.114 294.691 102.332 294.486 99.5729 294.066C96.0599 293.521 92.5257 292.635 88.9915 293.089C91.3688 288.842 93.7473 284.603 96.1353 280.355C97.7687 277.436 99.3819 274.72 102.364 273.925C102.769 273.823 103.192 273.754 103.638 273.72C113.784 273.016 123.856 276.447 134.013 275.992Z" fill="#D77D7D"/>
<path d="M129.63 147.533C123.379 148.84 117.181 150.453 111.12 152.555C108.966 153.304 106.535 153.872 104.965 155.735C103.574 157.371 102.663 159.655 101.399 161.438C98.9894 164.801 96.3148 167.959 93.4067 170.833C93.4067 170.866 93.4067 170.89 93.4163 170.924C93.7994 172.548 95.5931 173.377 97.1426 173.196C98.6922 173.003 100.072 172.084 101.441 171.276C112.626 164.698 127.231 165.391 137.845 173.003C139.235 173.991 140.71 175.151 142.377 175.025C143.417 171.889 142.26 168.436 140.954 165.425C139.384 161.813 137.569 158.314 135.52 154.986C133.875 152.293 132.05 149.693 129.885 147.477C129.8 147.499 129.714 147.511 129.63 147.533" fill="url(#paint8_linear)"/>
<path d="M169.579 143.592C169.547 145.125 168.369 146.341 167.201 147.25C164.102 149.692 160.186 151.919 159.422 155.951C159.231 156.951 159.263 157.985 159.284 159.007C159.443 165.573 159.22 172.151 158.626 178.683C158.307 182.17 157.883 185.646 157.352 189.1C157.31 189.407 157.235 189.759 156.97 189.884C156.63 190.053 156.27 189.747 156.015 189.463C153.022 186.055 150.952 181.852 148.331 178.115C140.668 167.198 128.728 160.859 118.858 152.203C118.369 151.771 117.871 151.316 117.605 150.703C117.085 149.465 117.679 148.022 118.391 146.897C121.161 142.478 125.586 139.65 129.619 136.548C134.884 132.493 139.681 127.744 143.884 122.451C145.465 120.451 147.142 116.691 149.965 117.827C151.992 118.645 154.189 121.292 156.079 123.473C156.758 124.246 157.384 124.973 157.957 125.529C160.112 127.642 162.277 129.778 164.06 132.266C166.002 134.969 167.424 138.048 168.846 141.092C169.218 141.876 169.589 142.706 169.579 143.592Z" fill="#CB7373"/>
<path d="M169.579 143.592C169.547 145.125 168.369 146.341 167.201 147.25C164.102 149.692 160.186 151.919 159.422 155.951C159.231 156.951 159.262 157.985 159.284 159.007C159.443 165.573 159.22 172.151 158.626 178.683C157.649 177.638 156.928 176.297 156.492 174.888C155.781 172.605 155.707 170.151 155.633 167.743C155.505 163.676 155.389 159.598 155.261 155.52C155.208 153.657 155.145 151.737 154.486 150.01C153.234 146.648 149.891 144.114 149.944 140.502C149.976 138.003 151.674 135.924 152.619 133.629C153.659 131.107 153.096 129.051 153.266 126.506C153.383 124.711 154.624 123.882 156.078 123.473C156.758 124.246 157.384 124.973 157.957 125.529C160.112 127.642 162.277 129.778 164.06 132.266C166.002 134.969 167.424 138.048 168.846 141.092C169.218 141.876 169.589 142.706 169.579 143.592Z" fill="#B86D6D"/>
<path d="M201.663 131.322C200.962 132.788 199.158 133.197 197.63 133.038C196.091 132.879 194.573 132.334 193.045 132.561C193.299 134.64 193.469 137.025 192.121 138.536C191.739 138.956 191.251 139.297 191.028 139.82C190.816 140.308 190.858 140.865 190.71 141.376C190.179 143.171 187.696 143.432 186.889 145.114C186.624 145.682 186.581 146.329 186.348 146.92C185.955 147.919 185.138 148.487 184.172 148.76C182.983 149.101 181.55 149.01 180.33 148.749C175.278 147.692 170.417 145.863 165.62 143.853C164.622 143.444 163.635 143.012 162.648 142.592C160.43 141.649 158.021 140.854 156.004 139.468C154.943 138.741 154.009 137.741 153.542 136.491C152.948 134.867 153.192 133.049 153.425 131.322C153.521 130.618 153.606 129.846 153.277 129.221C152.693 128.096 151.653 128.778 150.793 128.96C149.764 129.175 148.734 128.857 147.959 128.085C145.38 125.472 145.847 121.008 146.314 117.668C146.473 116.532 146.654 115.396 147.195 114.385C148.617 111.704 151.886 111.772 154.242 112.726C155.123 113.09 155.994 113.442 156.864 113.839C157.501 114.135 158.137 114.453 158.774 114.771C159.613 113.044 160.547 111.318 161.566 109.636C163.794 105.91 166.384 102.343 169.069 99.1623C170.682 97.2425 172.412 95.4022 174.45 94.039C177.921 91.7215 182.06 90.9149 186.082 90.1538C188.704 89.654 191.378 89.1542 194.01 89.5745C196.643 90.0062 199.275 91.5284 200.421 94.0958C200.994 95.3908 201.164 96.8562 201.249 98.2876C201.695 105.513 197.375 111.624 197.715 118.861C197.821 121.076 198.489 123.257 199.636 125.097C200.845 127.028 202.639 129.255 201.663 131.322Z" fill="#D77D7D"/>
<path d="M184.172 148.76C182.983 149.101 181.55 149.01 180.33 148.749C175.278 147.692 170.417 145.863 165.62 143.853C164.622 143.444 163.635 143.012 162.648 142.592C160.43 141.649 158.021 140.854 156.004 139.468C154.943 138.741 154.009 137.741 153.542 136.491C152.948 134.867 153.192 133.049 153.425 131.323C153.521 130.618 153.606 129.846 153.277 129.221C152.693 128.096 151.653 128.778 150.793 128.96C149.764 129.176 148.734 128.857 147.959 128.085C145.38 125.472 145.847 121.008 146.314 117.668C146.473 116.532 146.654 115.396 147.195 114.385C148.617 111.704 151.886 111.772 154.242 112.726C155.123 113.09 155.994 113.442 156.864 113.84C157.501 114.135 158.137 114.453 158.774 114.771C159.613 113.044 160.547 111.318 161.566 109.636C163.932 109.852 167.551 109.375 168.443 111.499C169.695 114.476 166.83 119.769 165.864 122.485C164.58 126.086 163.805 130.414 165.864 133.572C167.148 135.549 169.292 136.639 171.34 137.639C173.771 138.832 176.201 140.036 178.632 141.229C181.137 142.455 183.992 144.171 184.299 147.102C184.363 147.67 184.31 148.226 184.172 148.76Z" fill="#C57878"/>
<path d="M146.807 72.3189C143.921 74.5273 141.036 76.7357 138.151 78.9452C135.878 80.6844 133.423 82.7235 132.952 85.6703C132.447 88.8329 134.432 91.8865 134.416 95.0968C134.408 96.9303 133.746 98.6787 133.2 100.418C131.816 104.82 131.12 109.625 132.237 114.113C133.352 118.603 136.56 122.685 140.798 123.681C142.94 124.184 145.618 123.587 146.481 121.428C147.348 119.256 146.164 116.132 147.948 114.741C149.754 113.331 154.855 113.392 156.679 114.724C158.95 116.381 159.471 118.387 162.55 119.151C169.563 120.887 177.264 117.951 183.632 115.035C186.893 113.542 190.172 111.838 192.626 109.095C196.847 104.377 197.926 97.4711 200.515 91.5548C201.021 90.3949 201.601 89.2283 201.697 87.9514C201.833 86.1213 200.953 84.3844 199.962 82.886C196.87 78.2079 192.514 74.692 188.231 71.2533C183.039 67.0876 177.509 62.7731 171.059 62.0063C170.353 61.9222 169.649 61.8825 168.952 61.8825C160.908 61.8813 153.474 67.216 146.807 72.3189" fill="#201935"/>
<path d="M130.896 80.7062C129.793 81.3594 129.085 82.6067 128.752 83.9075C128.418 85.207 128.413 86.5748 128.411 87.9232C128.409 88.8366 128.418 89.7976 128.841 90.5917C129.644 92.1037 131.546 92.3854 133.171 92.382C133.708 92.3809 134.258 92.365 134.761 92.1616C136.302 91.5357 136.797 89.492 136.966 87.7369C137.144 85.9045 137.975 81.7775 136.4 80.5154C135.301 79.6361 131.94 80.0882 130.896 80.7062Z" fill="#D54CAF"/>
<path d="M114.65 80.2824C116.246 79.327 117.941 78.5113 119.742 78.1648C120.476 78.0228 121.364 77.9411 122.314 77.9411C125.405 77.9411 129.177 78.8078 130.663 81.3218C132.849 85.0206 130.743 89.7111 130.019 93.3884C129.524 95.891 130.929 98.314 131.542 100.785C133.029 106.777 129.826 112.864 129.218 119.029C128.749 123.79 129.218 135.5 127.999 141C125 151.749 118.76 148.504 113 153.5C109.448 156.581 105.336 160.5 104 161.5C102.21 162.84 98 170.5 96.5001 173C95.0002 175.5 95.5 174 92.0001 178C88.5002 182 90 197 88.0001 200C87.0002 201.5 82.0916 212.682 76.0001 219C73.3098 221.79 70.5001 226 68.4999 225.5C65.4453 226.43 70.8077 213.339 72 205.5C73.4202 196.162 74 184.5 75 181.5C78 170 85.8824 155.644 87 153.5C87.7737 152.018 89.3803 147.703 90.5 146.5C99.5001 129 97.2469 128.5 97.2469 116.067C97.7372 110.879 98.0492 105.624 99.4353 100.625C101.803 92.0876 107.385 84.6253 114.65 80.2824Z" fill="#201935"/>
<path d="M193.331 307.971C190.954 307.982 188.598 308.572 186.39 309.515C186.305 309.55 186.231 309.584 186.146 309.63C183.164 310.935 180.383 312.877 177.231 313.593C171.574 314.878 165.694 312.061 159.963 312.913C157.968 313.207 156.047 313.946 154.147 314.685C154.359 310.005 159.814 307.221 160.345 302.563C160.653 299.826 159.093 297.167 157.034 295.498C154.975 293.839 152.47 292.952 150.061 291.988C147.641 291.022 145.189 289.886 143.438 287.853C142.515 286.773 141.825 285.477 140.986 284.32C139.787 282.65 138.291 281.23 136.603 280.172C136.645 277.913 139.14 276.833 141.156 276.151C145.072 274.834 148.532 272.244 152.449 271.027C156.683 269.722 161.109 269.631 165.333 268.086C166.84 267.541 168.772 266.996 169.833 268.268C170.226 268.745 170.396 269.358 170.46 270.006C170.513 270.459 170.513 270.936 170.523 271.392C170.651 276.957 172.837 282.296 175.787 286.897C176.668 288.273 177.634 289.613 178.589 290.942C179.757 292.544 180.914 294.157 182.081 295.759C185.361 300.314 188.746 304.961 193.331 307.971Z" fill="#B61D23"/>
<path d="M193.331 307.971C190.954 307.982 188.598 308.572 186.39 309.515C186.305 309.55 186.231 309.584 186.146 309.63C185.393 309.231 184.671 308.765 183.981 308.278C181.009 306.209 178.112 303.312 177.719 299.542C177.624 298.554 177.677 297.463 177.082 296.689C176.541 295.985 175.628 295.782 174.843 295.396C173.601 294.782 172.603 293.589 172.168 292.191C171.733 290.795 171.85 289.215 171.224 287.898C170.3 285.91 168.082 285.136 166.129 284.387C164.166 283.649 162.011 282.411 161.661 280.23C161.396 278.559 162.33 276.924 163.497 275.777C164.983 274.299 166.84 273.391 168.422 272.051C169.154 271.426 169.791 270.688 170.46 270.006C170.513 270.459 170.513 270.936 170.523 271.392C170.651 276.957 172.837 282.296 175.787 286.897C176.668 288.273 177.634 289.613 178.589 290.942C179.757 292.544 180.914 294.157 182.081 295.759C185.361 300.314 188.746 304.961 193.331 307.971Z" fill="#9B1E39"/>
<path d="M180.341 281.744C179.993 281.224 179.614 280.721 179.367 280.139C179.165 279.667 179.055 279.153 178.855 278.679C178.6 278.074 178.205 277.547 177.76 277.082C175.845 275.085 172.921 274.269 170.339 275.012C169.202 275.34 167.978 276.227 168.044 277.484C168.094 278.419 168.869 279.138 169.683 279.485C169.889 279.572 170.119 279.66 170.228 279.869C170.315 280.038 170.297 280.244 170.287 280.438C170.221 281.894 170.879 283.367 171.981 284.225C173.147 285.134 174.792 285.434 175.549 286.75C175.811 287.207 175.931 287.739 176.142 288.226C176.779 289.697 178.31 290.664 179.821 290.556C185.265 290.172 182.078 284.341 180.341 281.744Z" fill="#D54CAF"/>
<path d="M130.005 274.59C130.139 277.588 129.344 280.624 127.773 283.112C126.955 284.407 125.915 285.6 125.525 287.108C125.063 288.906 125.612 290.804 126.158 292.576C126.634 294.127 127.213 295.815 128.538 296.623C129.331 297.105 130.274 297.192 131.184 297.268C134.09 297.51 137.056 297.747 139.884 296.996C141.069 296.682 142.304 296.196 143.474 296.568C145.659 297.263 146.367 300.506 148.508 301.34C149.393 301.685 150.379 301.548 151.293 301.787C153.794 302.438 155.499 305.753 158.051 305.393C159.82 305.144 160.956 303.014 160.771 301.114C160.586 299.214 159.415 297.585 158.092 296.302C156.894 295.141 155.537 294.17 154.075 293.431C150.413 291.575 145.912 291.014 143.336 287.665C141.813 285.686 141.119 282.883 139.055 281.581C138.175 281.027 136.952 280.57 136.9 279.479C136.868 278.819 137.345 278.237 137.897 277.942C138.449 277.648 139.076 277.57 139.678 277.423C140.338 277.264 142.756 276.593 142.909 275.69C143.113 274.482 140.37 275.064 139.663 275.07C136.439 275.1 133.213 274.941 130.005 274.59Z" fill="#D54CAF"/>
<path d="M186.504 296.705C186.344 294.408 186.019 292.058 184.959 290.052C183.9 288.046 181.969 286.433 179.815 286.414C179.219 286.41 178.579 286.551 178.168 287.013C177.637 287.613 177.649 288.544 177.751 289.363C177.946 290.948 178.388 292.568 179.413 293.731C180.425 294.88 181.985 295.568 182.499 297.048C182.656 297.499 182.699 297.989 182.84 298.447C183.151 299.458 184.651 301.414 185.837 301.152C187.276 300.834 186.586 297.888 186.504 296.705Z" fill="#AD408E"/>
<path d="M241.431 253.181C236.612 254.522 231.783 255.874 226.902 256.897C220.077 258.327 213.167 259.145 206.269 259.906C205.718 259.963 205.165 260.031 204.614 260.088C202.352 260.338 200.092 260.589 197.842 260.838C197.608 259.145 198.107 257.453 198.585 255.817C199.423 253.012 200.262 250.172 201.546 247.558C202.735 245.138 204.285 242.991 205.865 240.856C206.332 240.208 206.779 239.265 207.511 238.947C208.476 238.528 210.175 238.993 211.193 239.038C213.157 239.129 215.12 239.197 217.085 239.265C220.629 239.367 224.185 239.436 227.741 239.458C228.642 239.458 236.72 238.924 236.899 239.402C238.597 243.924 240.116 248.524 241.431 253.181Z" fill="#D77D7D"/>
<path d="M107.894 294.747C105.113 294.691 102.333 294.487 99.5732 294.066C96.0602 293.52 92.5259 292.636 88.9917 293.089C91.3691 288.841 93.7465 284.603 96.1345 280.354C97.7689 277.436 99.3822 274.72 102.364 273.924C103.065 274.14 103.681 274.527 104.126 275.118C104.88 276.094 104.997 277.457 104.997 278.73C104.975 280.763 104.71 282.808 104.201 284.762C103.84 286.194 103.341 287.681 103.723 289.101C104.158 290.703 105.591 291.714 106.652 292.93C107.14 293.475 107.554 294.088 107.894 294.747Z" fill="#C47676"/>
<path d="M265.012 228.619C252.306 231.471 244.392 241.637 241.529 254.731C240.343 260.163 238.071 263.532 233.242 265.969C230.561 267.322 228.051 268.634 226.06 271.037C222.004 275.933 221.606 282.442 220.823 288.601C219.963 295.363 216.506 297.674 210.898 299.562C207.612 300.667 204.466 301.93 201.776 304.34C196.828 308.775 195.779 315.174 194.291 321.547C193.094 326.675 190.161 336.474 183.442 335.389C177.448 334.421 176.296 328.541 175.439 323.216C174.465 317.164 173.224 311.11 167.178 308.99C165.876 308.534 165.319 310.726 166.614 311.181C175.39 314.259 171.853 327.344 176.65 333.919C179.924 338.409 185.449 338.581 189.627 335.362C195.222 331.051 195.866 323.21 197.543 316.667C198.967 311.116 201.433 306.589 206.346 303.849C209.688 301.984 213.503 301.557 216.843 299.737C222.261 296.783 222.619 291.221 223.264 285.397C223.808 280.463 225.013 274.992 228.593 271.497C231.608 268.55 235.849 267.878 238.957 265.108C244.156 260.474 243.401 252.193 246.355 246.144C250.282 238.103 257.344 232.657 265.577 230.809C266.913 230.509 266.347 228.318 265.012 228.619Z" fill="#CD444A"/>
<path d="M337.619 234.199C334.785 234.268 331.952 234.369 329.128 234.507C329.14 234.165 329.16 233.824 329.183 233.506C329.49 228.814 327.929 224.145 325.499 220.226C323.058 216.318 319.789 213.092 316.392 210.116C315.151 209.048 311.213 207.128 310.036 205.594C310.375 205.424 310.714 205.255 311.055 205.094C311.49 204.89 311.893 204.72 312.297 204.595C314.993 203.697 316.977 204.47 319.769 206.152C325.436 209.57 329.533 215.375 333.225 220.953C335.827 224.896 338.489 229.462 337.619 234.199Z" fill="#D79B9B"/>
<path d="M217.084 239.265C217.01 241.446 215.853 243.718 214.717 245.65C211.894 250.398 209.092 255.158 206.269 259.906C205.717 259.963 205.165 260.031 204.614 260.088C202.353 260.338 200.092 260.589 197.842 260.838C197.609 259.145 198.108 257.453 198.585 255.817C199.424 253.012 200.262 250.172 201.546 247.558C202.734 245.138 204.285 242.991 205.866 240.856C206.333 240.208 206.779 239.265 207.51 238.947C208.477 238.528 210.175 238.993 211.194 239.038C213.157 239.129 215.121 239.197 217.084 239.265Z" fill="#CC7474"/>
<g clip-path="url(#clip0)">
<path d="M330.243 149.347C330.822 153.431 330.762 156.987 330.589 159.712C330.578 159.883 330.561 160.053 330.537 160.219C330.446 160.851 330.265 161.428 330.007 161.908C329.75 162.388 329.421 162.759 329.044 162.996C325.654 165.181 322.014 166.51 318.245 166.939C314.131 167.441 309.924 167.008 305.747 165.654C305.326 165.517 304.933 165.142 304.645 164.602C304.58 164.454 304.515 164.309 304.45 164.165C304.448 164.162 304.447 164.159 304.447 164.156C304.382 163.978 304.328 163.792 304.287 163.601C303.417 159.555 302.769 155.436 302.353 151.294C302.155 149.315 302.019 147.43 301.931 145.657C301.88 144.592 302.021 143.562 302.338 142.687C302.654 141.812 303.134 141.127 303.72 140.714C306.392 138.825 309.249 137.52 312.22 136.831C317.975 135.5 322.539 136.816 325.816 138.215C326.365 138.449 326.887 138.877 327.34 139.465C327.794 140.054 328.166 140.786 328.428 141.604C329.105 143.726 329.815 146.328 330.243 149.347Z" fill="white"/>
<path d="M354 124C351.732 121.513 330.357 131.32 326.98 137.772C326.588 137.385 326.167 137.093 325.732 136.906C322.727 135.623 318.025 134.082 311.896 135.498C308.876 136.199 305.972 137.525 303.256 139.443C302.796 139.77 301.328 140.909 301 141.5C300.672 142.091 301.452 155.945 303.821 164.254C303.877 164.396 303.939 164.533 304.006 164.664C304.013 164.679 304.02 164.694 304.026 164.709L304.028 164.707C304.416 165.449 304.949 165.964 305.523 166.152C309.755 167.525 314.019 167.963 318.187 167.455L318.22 167.451C322.033 167.013 325.715 165.666 329.145 163.455C329.594 163.174 329.987 162.732 330.296 162.162C330.605 161.591 330.823 160.905 330.934 160.151C330.936 160.138 330.94 160.126 330.942 160.113C330.953 160.039 349.689 145 353.183 139.443C353.536 138.882 353.911 138.356 354.307 137.869C354.781 137.271 355.124 136.839 355.5 135.709C356.883 131.551 355.905 126.089 354 124ZM301 142.5C301.093 144.397 301.409 149.025 301.599 150.92C301.88 153.707 302.264 156.484 302.749 159.238C302.026 151.638 303.15 148.204 302.687 140.832C302.443 141.718 300.951 141.486 301 142.5ZM329.831 159.099C329.793 159.69 329.661 160.238 329.446 160.695C329.231 161.152 328.941 161.502 328.601 161.714C325.27 163.862 321.694 165.17 317.992 165.596L317.959 165.6C313.9 166.095 309.748 165.668 305.626 164.332C305.357 164.244 305.105 164.007 304.918 163.666C304.87 163.557 304.821 163.451 304.773 163.344C304.731 163.23 304.697 163.11 304.671 162.988C303.812 158.996 303.174 154.932 302.762 150.845C302.577 149.001 302.437 147.13 302.346 145.283C302.305 144.395 302.423 143.536 302.687 142.806C302.951 142.076 303.351 141.505 303.84 141.159C306.468 139.302 309.278 138.019 312.2 137.341C312.961 137.165 313.698 137.036 314.413 136.948C318.084 136.48 321.858 137.072 325.555 138.699C326.013 138.895 326.449 139.253 326.827 139.745C327.206 140.236 327.517 140.846 327.736 141.529C328.592 144.213 329.152 146.598 329.498 149.033C329.949 152.222 330.059 155.515 329.831 159.099ZM355.052 128.79C355.204 130.884 354.977 133.092 354.443 134.696C354.164 135.536 353.945 135.812 353.508 136.362C353.083 136.886 352.68 137.452 352.3 138.056C350.641 140.695 335.289 156.5 330.942 157.5C330.883 155.813 330.882 150.517 330.645 148.837C330.275 146.233 329.681 143.697 328.775 140.856C328.56 140.184 328.28 139.561 327.946 139.011C336.5 128 348.78 126.245 350.383 125.049C351.176 124.457 352.145 124.915 353.5 125C354.097 125.654 354.91 126.851 355.052 128.79Z" fill="#D6D6D6"/>
<path d="M321.289 144.467C314.897 143.347 308.572 144.126 302.643 146.765C302.571 146.797 302.506 146.852 302.451 146.926C302.396 147.001 302.352 147.094 302.321 147.2C302.291 147.306 302.275 147.423 302.275 147.544C302.274 147.665 302.288 147.788 302.317 147.906C302.346 148.024 302.389 148.134 302.443 148.231C302.497 148.327 302.562 148.408 302.633 148.469C302.704 148.53 302.78 148.569 302.858 148.585C302.935 148.601 303.012 148.592 303.083 148.56C308.875 145.983 315.054 145.221 321.298 146.316C321.453 146.342 321.602 146.27 321.711 146.117C321.82 145.963 321.881 145.739 321.88 145.494C321.879 145.25 321.816 145.004 321.705 144.812C321.594 144.619 321.445 144.495 321.289 144.467Z" fill="#D6D6D6"/>
<path d="M321.007 151.071L302.577 153.342C302.424 153.361 302.289 153.477 302.202 153.664C302.115 153.851 302.084 154.095 302.114 154.341C302.144 154.587 302.234 154.815 302.364 154.976C302.494 155.136 302.653 155.216 302.806 155.197L321.235 152.926C321.389 152.907 321.523 152.791 321.61 152.604C321.697 152.417 321.729 152.173 321.699 151.927C321.668 151.681 321.578 151.453 321.449 151.292C321.319 151.132 321.16 151.052 321.007 151.071Z" fill="#D6D6D6"/>
<path d="M321.878 157.116C319.117 158.613 316.215 159.569 313.231 159.965C310.104 160.379 306.91 160.174 303.722 159.353C303.645 159.333 303.567 159.336 303.494 159.363C303.421 159.39 303.354 159.441 303.296 159.512C303.238 159.583 303.192 159.673 303.159 159.777C303.126 159.882 303.107 159.998 303.103 160.119C303.1 160.24 303.112 160.364 303.139 160.483C303.165 160.603 303.206 160.715 303.259 160.815C303.311 160.914 303.375 160.999 303.445 161.063C303.516 161.127 303.592 161.17 303.67 161.189C306.88 162.014 310.095 162.235 313.246 161.847C313.319 161.838 313.393 161.829 313.466 161.819C316.54 161.411 319.53 160.426 322.375 158.884C322.515 158.806 322.624 158.639 322.677 158.42C322.73 158.2 322.723 157.945 322.657 157.712C322.592 157.478 322.473 157.284 322.327 157.173C322.181 157.061 322.02 157.041 321.878 157.116Z" fill="#D6D6D6"/>
</g>
<g clip-path="url(#clip1)">
<path d="M173.581 128.886C172.09 132.442 171.333 135.685 170.874 138.202C170.845 138.36 170.823 138.518 170.808 138.675C170.75 139.273 170.791 139.843 170.928 140.344C171.065 140.846 171.295 141.268 171.602 141.579C174.35 144.433 177.533 146.574 181.047 147.932C184.874 149.444 189.005 150.132 193.318 149.976C193.753 149.961 194.215 149.721 194.615 149.305C194.711 149.188 194.806 149.072 194.902 148.958C194.904 148.956 194.906 148.954 194.907 148.951C195.01 148.806 195.104 148.651 195.187 148.489C196.948 145.041 198.513 141.47 199.861 137.818C200.504 136.073 201.066 134.397 201.556 132.811C201.849 131.858 201.951 130.887 201.848 130.011C201.745 129.136 201.442 128.392 200.975 127.866C198.847 125.465 196.409 123.547 193.72 122.159C188.51 119.473 183.835 119.494 180.374 119.921C179.794 119.993 179.196 120.247 178.627 120.664C178.057 121.082 177.533 121.65 177.095 122.325C175.96 124.078 174.683 126.256 173.581 128.886Z" fill="white"/>
<path d="M149.274 113.276C152.5 110 160.5 120.097 179.36 119.22C179.824 118.97 180.295 118.813 180.754 118.755C183.928 118.363 188.787 118.172 194.335 121.033C197.069 122.444 199.547 124.393 201.711 126.832C202.076 127.246 202.356 127.778 202.535 128.399C202.714 129.019 199.658 142.27 195.484 149.201C195.398 149.315 195.307 149.424 195.213 149.526C195.203 149.537 195.193 149.549 195.183 149.561L195.181 149.559C194.64 150.132 194.011 150.463 193.418 150.486C189.048 150.644 184.862 149.947 180.984 148.414L180.953 148.402C177.4 147.025 174.181 144.857 171.401 141.969C171.034 141.599 170.759 141.097 170.593 140.5C170.428 139.903 170.377 139.224 170.443 138.512C170.444 138.499 170.592 140.513 170.593 140.5C170.6 140.431 148.593 133.44 146.518 127.5C146.309 126.9 146.07 126.326 145.802 125.783C145.485 125.118 145.255 124.638 145.154 123.516C144.781 119.388 146.97 114.683 149.274 113.276ZM202.387 132.597C201.863 134.294 201.285 136.002 200.668 137.672C199.761 140.129 198.757 142.55 197.661 144.924C200.095 138.214 200.631 136.469 202.764 129.899C202.795 130.766 202.666 131.69 202.387 132.597ZM171.741 137.841C171.642 138.386 171.643 138.918 171.744 139.388C171.845 139.857 172.044 140.25 172.321 140.53C175.02 143.335 178.147 145.44 181.597 146.778L181.627 146.79C185.404 148.282 189.481 148.962 193.737 148.808C194.015 148.797 194.31 148.647 194.567 148.385C194.638 148.299 194.709 148.215 194.78 148.13C194.846 148.038 194.907 147.938 194.96 147.834C196.697 144.432 198.24 140.908 199.571 137.306C200.171 135.68 200.734 134.017 201.244 132.365C201.488 131.57 201.571 130.76 201.485 130.03C201.399 129.3 201.147 128.679 200.758 128.239C198.665 125.879 196.267 123.993 193.622 122.626C192.933 122.271 192.256 121.965 191.592 121.702C188.181 120.333 184.429 119.902 180.514 120.428C180.029 120.488 179.53 120.701 179.054 121.049C178.579 121.398 178.141 121.872 177.774 122.435C176.339 124.651 175.256 126.671 174.367 128.792C173.203 131.57 172.344 134.53 171.741 137.841ZM147.169 117.353C146.518 120.428 146.255 121.276 146.399 122.869C146.474 123.702 146.621 124.009 146.913 124.621C147.2 125.206 147.457 125.822 147.682 126.468C148.667 129.289 160 134.5 171.043 136.104C171.485 134.589 172.701 129.783 173.313 128.319C174.264 126.052 175.414 123.903 176.933 121.558C177.293 121.003 177.704 120.51 178.151 120.097C166.5 123.516 153.763 116.655 152.5 115.157C151.876 114.417 150.843 114.583 149.525 114.312C148.803 114.753 147.749 115.63 147.169 117.353Z" fill="#D6D6D6"/>
<path d="M188.194 127.726C193.128 127.778 197.524 129.521 201.152 132.864C201.196 132.905 201.229 132.965 201.25 133.041C201.271 133.117 201.279 133.207 201.274 133.307C201.268 133.407 201.25 133.514 201.219 133.623C201.188 133.732 201.146 133.839 201.095 133.94C201.043 134.041 200.984 134.133 200.92 134.211C200.855 134.289 200.788 134.35 200.72 134.393C200.653 134.436 200.587 134.459 200.527 134.46C200.467 134.461 200.413 134.441 200.369 134.4C196.825 131.135 192.531 129.432 187.711 129.382C187.591 129.379 187.502 129.291 187.462 129.135C187.423 128.979 187.436 128.768 187.5 128.549C187.564 128.33 187.673 128.121 187.803 127.967C187.933 127.812 188.074 127.726 188.194 127.726Z" fill="#D6D6D6"/>
<path d="M188.545 135.322L198.856 139.41C198.941 139.444 198.99 139.562 198.99 139.739C198.99 139.915 198.942 140.135 198.857 140.35C198.771 140.566 198.655 140.759 198.534 140.887C198.413 141.015 198.297 141.068 198.212 141.034L187.901 136.946C187.815 136.912 187.767 136.794 187.767 136.618C187.766 136.441 187.814 136.221 187.9 136.006C187.985 135.791 188.101 135.598 188.222 135.469C188.343 135.341 188.459 135.288 188.545 135.322Z" fill="#D6D6D6"/>
<path d="M183.322 140.113C184.952 141.914 186.824 143.253 188.9 144.104C191.075 144.995 193.459 145.343 195.996 145.138C196.058 145.132 196.114 145.148 196.16 145.184C196.207 145.221 196.243 145.277 196.267 145.351C196.29 145.424 196.301 145.513 196.298 145.611C196.296 145.71 196.28 145.817 196.251 145.927C196.222 146.036 196.182 146.145 196.132 146.247C196.081 146.35 196.023 146.444 195.959 146.525C195.894 146.605 195.826 146.67 195.758 146.716C195.69 146.762 195.624 146.787 195.562 146.791C193.008 146.997 190.605 146.66 188.404 145.788C188.353 145.768 188.302 145.748 188.251 145.727C186.113 144.85 184.184 143.47 182.505 141.614C182.422 141.521 182.386 141.353 182.404 141.148C182.422 140.942 182.492 140.715 182.6 140.517C182.708 140.318 182.845 140.164 182.98 140.089C183.115 140.013 183.238 140.022 183.322 140.113Z" fill="#D6D6D6"/>
</g>
<defs>
<linearGradient id="paint0_linear" x1="30.5292" y1="273.096" x2="64.375" y2="237.014" gradientUnits="userSpaceOnUse">
<stop stop-color="#FFC7C8"/>
<stop offset="0.478918" stop-color="#FFE6E8"/>
<stop offset="0.48" stop-color="#FFB3B3"/>
<stop offset="0.999254" stop-color="#FFB3B3"/>
<stop offset="1" stop-color="#FFB3B3"/>
</linearGradient>
<linearGradient id="paint1_linear" x1="10.1736" y1="142.419" x2="113.848" y2="223.452" gradientUnits="userSpaceOnUse">
<stop stop-color="#FFE6E8"/>
<stop offset="0.999254" stop-color="#FFB3B3"/>
<stop offset="1" stop-color="#FFB3B3"/>
</linearGradient>
<linearGradient id="paint2_linear" x1="274.257" y1="108.434" x2="310.779" y2="94.3185" gradientUnits="userSpaceOnUse">
<stop stop-color="#FFC7C8"/>
<stop offset="0.478918" stop-color="#FFE6E8"/>
<stop offset="0.48" stop-color="#FFB3B3"/>
<stop offset="0.999254" stop-color="#FFB3B3"/>
<stop offset="1" stop-color="#FFB3B3"/>
</linearGradient>
<linearGradient id="paint3_linear" x1="69.5" y1="-8.05093e-06" x2="338.5" y2="372.5" gradientUnits="userSpaceOnUse">
<stop stop-color="#FFE7E7"/>
<stop offset="0.578125" stop-color="#EA9898"/>
</linearGradient>
<linearGradient id="paint4_linear" x1="71.0773" y1="138.947" x2="115.98" y2="121.691" gradientUnits="userSpaceOnUse">
<stop stop-color="#FFC7C8"/>
<stop offset="0.478918" stop-color="#FFE6E8"/>
<stop offset="0.48" stop-color="#FFB3B3"/>
<stop offset="0.999254" stop-color="#FFB3B3"/>
<stop offset="1" stop-color="#FFB3B3"/>
</linearGradient>
<linearGradient id="paint5_linear" x1="307.994" y1="177.472" x2="221.235" y2="287.897" gradientUnits="userSpaceOnUse">
<stop stop-color="#E38E0E"/>
<stop offset="0.265625" stop-color="#D9870E"/>
<stop offset="0.265725" stop-color="#29292C"/>
<stop offset="0.510417" stop-color="#2D2D30"/>
<stop offset="0.510517" stop-color="#555465"/>
</linearGradient>
<linearGradient id="paint6_linear" x1="171.503" y1="323.058" x2="50.1864" y2="294.89" gradientUnits="userSpaceOnUse">
<stop stop-color="white"/>
<stop offset="0.998526" stop-color="#D8E7EC"/>
<stop offset="1" stop-color="#D8E7EC"/>
</linearGradient>
<linearGradient id="paint7_linear" x1="152.844" y1="172.485" x2="64.8953" y2="317.344" gradientUnits="userSpaceOnUse">
<stop stop-color="white"/>
<stop offset="0.998526" stop-color="#D8E7EC"/>
<stop offset="1" stop-color="#D8E7EC"/>
</linearGradient>
<linearGradient id="paint8_linear" x1="149.237" y1="177.983" x2="109.42" y2="161.137" gradientUnits="userSpaceOnUse">
<stop stop-color="white"/>
<stop offset="0.998526" stop-color="#D8E7EC"/>
<stop offset="1" stop-color="#D8E7EC"/>
</linearGradient>
<clipPath id="clip0">
<rect width="61.2057" height="52.5039" fill="white" transform="translate(295.416 122.688) rotate(-7.02534)"/>
</clipPath>
<clipPath id="clip1">
<rect width="60.7739" height="49.0923" fill="white" transform="matrix(-0.929595 -0.368583 -0.368583 0.929595 213.063 113.642)"/>
</clipPath>
</defs>
</svg>
