<svg width="216" height="103" viewBox="0 0 216 103" fill="none" xmlns="http://www.w3.org/2000/svg">
<path d="M178.958 102.158H97.8363C87.3205 102.158 78.7651 93.6029 78.7651 83.0872V68.6392H82.0405V83.0872C82.0405 91.797 89.1264 98.8829 97.8363 98.8829H178.958C187.669 98.8829 194.755 91.797 194.755 83.0872V74.5352H198.03V83.0872C198.03 93.6029 189.475 102.158 178.958 102.158Z" fill="#E21D25"/>
<path d="M197.332 79.0387H195.451C193.958 79.0387 192.748 77.8282 192.748 76.3351V62.1701H200.036V76.3351C200.036 77.8282 198.826 79.0387 197.332 79.0387Z" fill="#B61D23"/>
<path d="M81.3422 72.979H79.4609C77.9678 72.979 76.7573 71.7688 76.7573 70.2758V56.1103H84.0453V70.2758C84.0453 71.7688 82.8352 72.979 81.3422 72.979" fill="#B61D23"/>
<path d="M66.6569 5.07959C61.8889 5.07959 57.1217 6.89474 53.4914 10.5238C46.2316 17.7836 46.2316 29.5958 53.4914 36.8556L80.4017 63.7655L107.312 36.8556C114.571 29.5958 114.571 17.7836 107.312 10.5238C100.052 3.264 88.2404 3.26442 80.9806 10.5238L80.4017 11.1027L79.8228 10.5238C76.1929 6.89474 71.4249 5.07959 66.6569 5.07959ZM80.4017 66.0813L52.3335 38.0135C44.4354 30.1149 44.4354 17.264 52.3335 9.3659C60.0421 1.65769 72.467 1.4737 80.4017 8.80928C88.3364 1.47202 100.762 1.65811 108.469 9.3659C116.368 17.264 116.368 30.1149 108.469 38.0135L80.4017 66.0813Z" fill="#B61D23"/>
<path d="M106.042 35.5832L80.4012 61.2168L54.7675 35.5832C50.5616 31.3773 49.0547 25.4817 50.2471 20.0636C54.9444 20.3259 55.0753 25.2914 60.021 25.2914C65.1111 25.2914 65.1111 20.051 70.1949 20.051C75.285 20.051 75.285 25.2914 80.3684 25.2914C85.4585 25.2914 85.4585 20.051 90.5486 20.051C95.632 20.051 95.6319 25.2914 100.722 25.2914C105.694 25.2914 105.812 20.2931 110.555 20.0573C111.747 25.4749 110.247 31.3773 106.042 35.5832" fill="#B61D23"/>
<path d="M50.7719 20.7764C49.8098 26.0202 51.454 31.3436 55.2308 35.12L80.4009 60.2905L105.579 35.12C109.353 31.3449 110.995 26.0173 110.03 20.7659C108.333 21.0181 107.376 22.0034 106.285 23.1267C105 24.4484 103.545 25.947 100.722 25.947C97.899 25.947 96.4443 24.4484 95.1618 23.1259C93.9007 21.8274 92.8123 20.7057 90.5483 20.7057C88.2805 20.7057 87.1904 21.8278 85.9289 23.1272C84.6447 24.4488 83.1908 25.947 80.3685 25.947C77.5504 25.947 76.0973 24.4497 74.8152 23.1284C73.5529 21.8286 72.4637 20.7057 70.195 20.7057C67.931 20.7057 66.8422 21.8274 65.5811 23.1259C64.2986 24.4484 62.8439 25.947 60.0211 25.947C57.2051 25.947 55.7525 24.4501 54.4717 23.1293C53.3895 22.0156 52.4418 21.0379 50.7719 20.7764ZM80.4009 62.1432L54.3045 36.0463C50.0725 31.8152 48.3163 25.7874 49.6077 19.923L49.7272 19.3785L50.2839 19.4097C52.8249 19.5512 54.1992 20.9676 55.4114 22.2168C56.6708 23.5149 57.7592 24.6366 60.0211 24.6366C62.2898 24.6366 63.379 23.5137 64.6413 22.2139C65.9234 20.8926 67.3769 19.3958 70.195 19.3958C73.0178 19.3958 74.4725 20.8939 75.755 22.2164C77.0161 23.515 78.1041 24.6366 80.3685 24.6366C82.6367 24.6366 83.7268 23.5145 84.9891 22.2143C86.2725 20.8935 87.7264 19.3958 90.5483 19.3958C93.3664 19.3958 94.8194 20.8926 96.1015 22.2139C97.3634 23.5137 98.4531 24.6366 100.722 24.6366C102.991 24.6366 104.082 23.5137 105.345 22.2139C106.567 20.9562 107.951 19.5305 110.523 19.4029L111.076 19.3752L111.195 19.9166C112.487 25.7874 110.734 31.8177 106.505 36.0463L80.4009 62.1432" fill="#B61D23"/>
<path d="M90.5482 19.3958C93.3663 19.3958 94.8194 20.8926 96.1015 22.2139C97.3634 23.5137 98.4531 24.6366 100.722 24.6366C102.991 24.6366 104.082 23.5137 105.345 22.2139C106.437 21.0897 107.659 19.8316 109.743 19.4859C109.015 16.7579 107.585 14.272 105.578 12.2594C102.526 9.20675 98.4653 7.52548 94.1449 7.52548C89.8295 7.52548 85.7714 9.20675 82.7179 12.2602L80.4009 14.5764L78.0842 12.2602C75.0308 9.20675 70.9731 7.52548 66.6573 7.52548C62.3415 7.52548 58.2838 9.20675 55.2308 12.2602C53.211 14.2792 51.7777 16.7688 51.0573 19.496C53.1158 19.8509 54.328 21.1006 55.4114 22.2168C56.6708 23.5149 57.7592 24.6366 60.0211 24.6366C62.2897 24.6366 63.3794 23.5137 64.6413 22.2139C65.9234 20.8926 67.3773 19.3958 70.195 19.3958C73.0177 19.3958 74.4724 20.8939 75.755 22.2164C77.016 23.515 78.1044 24.6366 80.3684 24.6366C82.6366 24.6366 83.7267 23.5145 84.9891 22.2143C86.2724 20.8935 87.7268 19.3958 90.5482 19.3958ZM100.722 25.947C97.899 25.947 96.4442 24.4484 95.1617 23.1259C93.9006 21.8274 92.8126 20.7057 90.5482 20.7057C88.2804 20.7057 87.1903 21.8278 85.9289 23.1272C84.6451 24.4488 83.1908 25.947 80.3684 25.947C77.5503 25.947 76.0973 24.4497 74.8152 23.1284C73.5529 21.8286 72.4636 20.7057 70.195 20.7057C67.931 20.7057 66.8421 21.8274 65.5811 23.1259C64.2985 24.4484 62.8438 25.947 60.0211 25.947C57.2051 25.947 55.7524 24.4501 54.4716 23.1293C53.2745 21.8964 52.2409 20.8312 50.2105 20.7175L49.4451 20.6754L49.6068 19.9255C50.3087 16.675 51.9335 13.704 54.3044 11.3335C57.6042 8.03284 61.9916 6.21516 66.6573 6.21516C71.323 6.21516 75.7103 8.03284 79.0105 11.3335L80.4009 12.7238L81.7916 11.3335C85.0922 8.03284 89.4796 6.21516 94.1449 6.21516C98.8152 6.21516 103.205 8.03284 106.505 11.3335C108.863 13.6981 110.485 16.6661 111.195 19.917L111.36 20.6733L110.588 20.7116C108.531 20.8139 107.491 21.8855 106.285 23.1267C105.001 24.4484 103.545 25.947 100.722 25.947" fill="#B61D23"/>
<path d="M110.593 20.7107L110.517 19.4034C110.64 19.3962 110.772 19.3958 110.902 19.3958V20.7057C110.796 20.7065 110.692 20.7053 110.593 20.7107" fill="#B61D23"/>
<path d="M122.078 66.1053C121.4 66.1053 120.81 65.8547 120.309 65.3537C119.838 64.8526 119.602 64.2632 119.602 63.5853V36.3516C119.602 35.6737 119.838 35.0842 120.309 34.5832C120.81 34.0821 121.4 33.8316 122.078 33.8316H125.349C126.027 33.8316 126.602 34.0821 127.074 34.5832C127.575 35.0842 127.825 35.6737 127.825 36.3516V63.5853C127.825 64.2632 127.575 64.8526 127.074 65.3537C126.602 65.8547 126.027 66.1053 125.349 66.1053H122.078ZM142.555 39.9326V60.0042C142.555 60.2695 142.687 60.4316 142.952 60.4905C143.542 60.6084 144.249 60.6674 145.075 60.6674C148.051 60.6674 150.247 59.7979 151.662 58.0589C153.106 56.32 153.828 53.4758 153.828 49.5263C153.828 45.9895 153.106 43.3958 151.662 41.7453C150.218 40.0947 148.022 39.2695 145.075 39.2695C144.249 39.2695 143.542 39.3284 142.952 39.4463C142.687 39.5053 142.555 39.6674 142.555 39.9326ZM137.691 66.1937C136.984 66.1347 136.395 65.84 135.923 65.3095C135.451 64.7495 135.216 64.1011 135.216 63.3642V36.5726C135.216 35.8358 135.451 35.2021 135.923 34.6716C136.395 34.1116 136.984 33.8021 137.691 33.7432C139.99 33.5074 142.26 33.3895 144.5 33.3895C149.776 33.3895 153.843 34.7895 156.702 37.5895C159.561 40.3895 160.99 44.3684 160.99 49.5263C160.99 55.1263 159.561 59.3705 156.702 62.2589C153.843 65.1179 149.776 66.5474 144.5 66.5474C142.26 66.5474 139.99 66.4295 137.691 66.1937ZM175.896 40.3747L172.669 53.0632C172.639 53.1516 172.654 53.24 172.713 53.3284C172.801 53.3874 172.89 53.4168 172.978 53.4168H178.902C178.991 53.4168 179.065 53.3874 179.124 53.3284C179.212 53.24 179.241 53.1516 179.212 53.0632L175.985 40.3747C175.985 40.3453 175.97 40.3305 175.94 40.3305C175.911 40.3305 175.896 40.3453 175.896 40.3747ZM164.092 66.1053C163.473 66.1053 162.972 65.8547 162.589 65.3537C162.235 64.8526 162.161 64.3074 162.368 63.7179L171.298 36.2189C171.534 35.5116 171.947 34.9368 172.536 34.4947C173.155 34.0526 173.833 33.8316 174.57 33.8316H177.488C178.254 33.8316 178.947 34.0526 179.566 34.4947C180.185 34.9368 180.597 35.5116 180.804 36.2189L189.69 63.7179C189.896 64.3074 189.808 64.8526 189.425 65.3537C189.071 65.8547 188.585 66.1053 187.966 66.1053H185.004C184.267 66.1053 183.604 65.8842 183.014 65.4421C182.425 64.9705 182.041 64.3811 181.865 63.6737L180.804 59.4737C180.774 59.2379 180.627 59.12 180.361 59.12H171.519C171.284 59.12 171.136 59.2379 171.077 59.4737L170.016 63.6737C169.839 64.3811 169.456 64.9705 168.867 65.4421C168.277 65.8842 167.614 66.1053 166.877 66.1053H164.092ZM202.313 53.1958C198.6 52.0168 195.918 50.5579 194.267 48.8189C192.616 47.0505 191.791 44.8989 191.791 42.3642C191.791 39.5937 192.749 37.4126 194.665 35.8211C196.61 34.2 199.381 33.3895 202.976 33.3895C205.688 33.3895 208.149 33.6989 210.36 34.3179C211.067 34.5242 211.627 34.9516 212.04 35.6C212.482 36.2189 212.703 36.9116 212.703 37.6779V38.96C212.703 39.5495 212.452 40.0063 211.951 40.3305C211.45 40.6547 210.92 40.7137 210.36 40.5074C207.854 39.6232 205.541 39.1811 203.419 39.1811C200.707 39.1811 199.351 40.2421 199.351 42.3642C199.351 44.1621 200.53 45.4442 202.888 46.2105C206.955 47.4484 209.77 48.8926 211.332 50.5432C212.924 52.1937 213.72 54.36 213.72 57.0421C213.72 63.3789 209.726 66.5474 201.739 66.5474C199.204 66.5474 196.905 66.1495 194.842 65.3537C194.134 65.0884 193.574 64.6316 193.162 63.9832C192.779 63.3053 192.587 62.5684 192.587 61.7726V60.3579C192.587 59.8274 192.823 59.4295 193.294 59.1642C193.766 58.8695 194.238 58.84 194.709 59.0758C196.861 60.1368 199.056 60.6674 201.296 60.6674C202.859 60.6674 204.038 60.3726 204.833 59.7832C205.659 59.1642 206.071 58.2947 206.071 57.1747C206.071 56.2021 205.791 55.4063 205.231 54.7874C204.671 54.1684 203.699 53.6379 202.313 53.1958Z" fill="#B61D23"/>
<path d="M8.02105 56.0316C7.09474 56.0316 6.29474 55.7158 5.62105 55.0842C4.98947 54.4105 4.67368 53.6105 4.67368 52.6842C4.67368 51.7579 4.98947 50.9789 5.62105 50.3474C6.29474 49.6737 7.09474 49.3368 8.02105 49.3368H19.0737C19.4105 49.3368 19.5789 49.1474 19.5789 48.7684V37.9684C19.5789 37 19.9368 36.1579 20.6526 35.4421C21.3684 34.7263 22.2105 34.3684 23.1789 34.3684C24.1474 34.3684 24.9895 34.7263 25.7053 35.4421C26.4211 36.1579 26.7789 37 26.7789 37.9684V48.7684C26.7789 49.1474 26.9474 49.3368 27.2842 49.3368H38.3368C39.2632 49.3368 40.0421 49.6737 40.6737 50.3474C41.3474 50.9789 41.6842 51.7579 41.6842 52.6842C41.6842 53.6105 41.3474 54.4105 40.6737 55.0842C40.0421 55.7158 39.2632 56.0316 38.3368 56.0316H27.2842C26.9474 56.0316 26.7789 56.2211 26.7789 56.6V67.4C26.7789 68.3684 26.4211 69.2105 25.7053 69.9263C24.9895 70.6421 24.1474 71 23.1789 71C22.2105 71 21.3684 70.6421 20.6526 69.9263C19.9368 69.2105 19.5789 68.3684 19.5789 67.4V56.6C19.5789 56.2211 19.4105 56.0316 19.0737 56.0316H8.02105Z" fill="#B61D23"/>
<g clip-path="url(#clip0)">
<path d="M182.147 55.2883C182.181 56.4152 181.964 57.3778 181.742 58.1111C181.728 58.1573 181.711 58.2026 181.692 58.2469C181.618 58.4155 181.509 58.5659 181.371 58.6875C181.233 58.809 181.069 58.8988 180.893 58.9503C179.299 59.4297 177.642 59.6685 175.977 59.6589C174.159 59.6574 172.349 59.3994 170.603 58.8925C170.427 58.8414 170.276 58.7265 170.179 58.5703C170.159 58.5282 170.139 58.4865 170.118 58.4452C170.117 58.4444 170.117 58.4435 170.117 58.4426C170.098 58.3923 170.085 58.34 170.077 58.2869C169.915 57.1603 169.854 56.0214 169.895 54.884C169.915 54.3405 169.957 53.8247 170.014 53.3408C170.049 53.0503 170.166 52.7756 170.351 52.5488C170.536 52.322 170.781 52.1525 171.059 52.0598C172.324 51.6369 173.638 51.3785 174.969 51.2908C177.547 51.1223 179.465 51.6317 180.817 52.1207C181.043 52.2025 181.248 52.3361 181.414 52.5109C181.58 52.6856 181.702 52.8966 181.773 53.1272C181.953 53.7255 182.123 54.455 182.147 55.2883Z" fill="white"/>
<path d="M171.456 58.5703C171.436 58.5282 171.415 58.4864 171.394 58.4452C171.394 58.4444 171.394 58.4435 171.394 58.4426C171.375 58.3922 171.362 58.34 171.354 58.2869C171.192 57.1603 171.131 56.0214 171.172 54.884C171.192 54.3405 171.234 53.8247 171.291 53.3408C171.326 53.0503 171.442 52.7756 171.627 52.5488C171.812 52.322 172.058 52.1525 172.335 52.0598C173.601 51.6369 174.915 51.3785 176.246 51.2908C176.367 51.2829 176.486 51.277 176.603 51.272C176.059 51.2485 175.513 51.2548 174.969 51.2908C173.638 51.3785 172.324 51.6369 171.059 52.0598C170.781 52.1525 170.536 52.322 170.351 52.5488C170.166 52.7756 170.049 53.0503 170.014 53.3408C169.957 53.8247 169.915 54.3405 169.895 54.884C169.854 56.0214 169.915 57.1603 170.077 58.2869C170.085 58.34 170.098 58.3922 170.117 58.4426C170.117 58.4435 170.117 58.4444 170.118 58.4452C170.139 58.4864 170.159 58.5282 170.179 58.5703C170.276 58.7265 170.427 58.8413 170.603 58.8924C172.349 59.3994 174.159 59.6574 175.977 59.6589C176.2 59.6591 176.416 59.6555 176.626 59.6481C175.018 59.5945 173.424 59.3407 171.88 58.8924C171.703 58.8413 171.552 58.7265 171.456 58.5703V58.5703Z" fill="#D6D6D6"/>
<path d="M186.044 50.6005C185.189 49.85 183.217 50.5197 181.4 52.1569C181.25 52.0389 181.082 51.9456 180.903 51.8803C179.663 51.4318 177.698 50.8566 174.952 51.036C173.599 51.1251 172.263 51.3877 170.977 51.8173C170.76 51.8904 170.558 52.0047 170.383 52.154C168.606 50.5859 166.844 49.9448 166.052 50.5949C165.375 51.1514 165.55 52.4916 165.833 53.2567C166.142 54.0928 166.671 54.5577 167.182 55.0072C167.259 55.0746 167.335 55.1417 167.411 55.2098C168.389 56.097 169.223 57.226 169.892 58.5658C169.909 58.6062 169.928 58.6455 169.95 58.6834C169.952 58.6876 169.955 58.6919 169.957 58.6961L169.958 58.6956C170.087 58.9098 170.291 59.0675 170.531 59.1376C172.301 59.6514 174.134 59.9129 175.977 59.9142H175.992C177.676 59.9229 179.352 59.6807 180.964 59.1955C181.175 59.1343 181.37 59.0278 181.535 58.8833C181.701 58.7388 181.832 58.5599 181.921 58.3592C181.923 58.3557 181.925 58.3526 181.927 58.3491C181.935 58.3296 182.796 56.3823 184.616 54.9919C184.8 54.8514 184.992 54.7213 185.19 54.6024C185.429 54.4561 185.601 54.3504 185.826 54.0563C186.651 52.9749 186.761 51.2309 186.044 50.6005V50.6005ZM169.76 53.3108C169.699 53.8283 169.659 54.3546 169.64 54.8749C169.612 55.6401 169.63 56.4063 169.694 57.1694C169.157 56.3053 168.504 55.5187 167.753 54.8314C167.676 54.7615 167.598 54.6927 167.519 54.6237C167.034 54.1973 166.576 53.7945 166.312 53.0795C166.033 52.325 165.992 51.3053 166.376 50.9899C166.874 50.5814 168.366 51.055 170.045 52.537C169.891 52.7692 169.794 53.0342 169.76 53.3108V53.3108ZM181.497 58.0371C181.449 58.196 181.362 58.3404 181.244 58.4571C181.126 58.5738 180.98 58.6591 180.821 58.7053C179.255 59.1765 177.627 59.4119 175.992 59.4036H175.977C174.183 59.4022 172.397 59.1476 170.674 58.6473C170.561 58.6144 170.464 58.5418 170.401 58.443C170.386 58.412 170.37 58.3816 170.355 58.3508C170.343 58.3185 170.335 58.285 170.33 58.2508C170.17 57.1393 170.11 56.0157 170.15 54.8935C170.169 54.3871 170.208 53.8747 170.268 53.3709C170.297 53.1286 170.395 52.8996 170.549 52.7105C170.703 52.5213 170.908 52.3797 171.139 52.3021C172.384 51.8863 173.677 51.6322 174.986 51.5459C175.327 51.5236 175.655 51.5134 175.971 51.5134C177.595 51.509 179.207 51.796 180.73 52.3607C180.919 52.4293 181.089 52.541 181.228 52.6869C181.366 52.8327 181.469 53.0088 181.528 53.2012C181.757 53.958 181.872 54.6235 181.892 55.2957C181.918 56.1757 181.789 57.0724 181.497 58.0371V58.0371ZM186.002 52.1647C185.956 52.7378 185.738 53.329 185.42 53.7464C185.253 53.9648 185.143 54.0324 184.923 54.167C184.71 54.295 184.504 54.4349 184.306 54.5861C183.442 55.2464 182.787 56.0144 182.324 56.668C182.389 56.2086 182.415 55.7445 182.402 55.2806C182.381 54.5622 182.259 53.8545 182.017 53.0535C181.959 52.8641 181.87 52.6856 181.754 52.5253C182.556 51.8052 183.407 51.2647 184.169 50.9938C184.86 50.7487 185.434 50.745 185.706 50.9842C185.931 51.1816 186.044 51.634 186.002 52.1647V52.1647Z" fill="#D6D6D6"/>
<path d="M180.074 53.3989C177.35 52.8815 174.554 52.8815 171.83 53.3989C171.797 53.4052 171.765 53.4179 171.737 53.4363C171.709 53.4547 171.685 53.4784 171.666 53.5061C171.647 53.5339 171.634 53.565 171.627 53.5979C171.621 53.6307 171.62 53.6645 171.627 53.6975C171.633 53.7304 171.646 53.7618 171.664 53.7899C171.682 53.8179 171.706 53.842 171.734 53.8609C171.761 53.8798 171.793 53.893 171.825 53.8998C171.858 53.9066 171.892 53.9069 171.925 53.9007C174.586 53.3951 177.318 53.3951 179.979 53.9007C180.045 53.913 180.114 53.8986 180.17 53.8605C180.226 53.8223 180.264 53.7637 180.277 53.6973C180.289 53.6309 180.275 53.5622 180.237 53.5063C180.199 53.4504 180.141 53.4118 180.074 53.3989V53.3989Z" fill="#D6D6D6"/>
<path d="M180.027 55.3814H171.878C171.81 55.3814 171.745 55.4083 171.697 55.4562C171.649 55.504 171.622 55.569 171.622 55.6367C171.622 55.7044 171.649 55.7694 171.697 55.8173C171.745 55.8652 171.81 55.8921 171.878 55.8921H180.027C180.094 55.8921 180.159 55.8652 180.207 55.8173C180.255 55.7694 180.282 55.7044 180.282 55.6367C180.282 55.569 180.255 55.504 180.207 55.4562C180.159 55.4083 180.094 55.3814 180.027 55.3814V55.3814Z" fill="#D6D6D6"/>
<path d="M179.966 57.2892C178.683 57.603 177.368 57.7653 176.047 57.773C174.663 57.7807 173.283 57.6182 171.938 57.2892C171.905 57.2809 171.871 57.2792 171.838 57.2841C171.805 57.2891 171.773 57.3005 171.744 57.3179C171.715 57.3353 171.69 57.3582 171.67 57.3854C171.65 57.4125 171.635 57.4433 171.627 57.4761C171.619 57.5088 171.618 57.5428 171.623 57.5761C171.628 57.6094 171.64 57.6414 171.658 57.6701C171.675 57.6989 171.698 57.7238 171.726 57.7436C171.753 57.7634 171.784 57.7775 171.817 57.7853C173.17 58.1163 174.559 58.2837 175.952 58.2839C175.985 58.2839 176.017 58.2839 176.05 58.2836C177.41 58.2758 178.766 58.1085 180.087 57.7853C180.153 57.7689 180.209 57.7272 180.244 57.6695C180.279 57.6117 180.29 57.5424 180.273 57.4769C180.257 57.4113 180.216 57.3547 180.158 57.3196C180.101 57.2844 180.032 57.2735 179.966 57.2892V57.2892Z" fill="#D6D6D6"/>
</g>
<defs>
<clipPath id="clip0">
<rect width="21.7895" height="21.7895" fill="white" transform="translate(165.158 44.2105)"/>
</clipPath>
</defs>
</svg>
